<?xml version="1.0" encoding="UTF-8" standalone="no"?><!DOCTYPE svg PUBLIC "-//W3C//DTD SVG 1.1//EN" "http://www.w3.org/Graphics/SVG/1.1/DTD/svg11.dtd"><svg width="100%" height="100%" viewBox="0 0 405 380" version="1.1" xmlns="http://www.w3.org/2000/svg" xmlns:xlink="http://www.w3.org/1999/xlink" xml:space="preserve" xmlns:serif="http://www.serif.com/" style="fill-rule:evenodd;clip-rule:evenodd;stroke-linejoin:round;stroke-miterlimit:2;"><g id="Watermark"><path d="M179.61,293.912l-95.317,0c-6.384,0 -11.56,-5.175 -11.56,-11.559c0,-28.591 0,-100.32 0,-100.32c0,-0 102.611,-66.897 129.358,-84.335c3.837,-2.501 8.789,-2.501 12.626,0c26.747,17.438 129.358,84.335 129.358,84.335l-0,100.32c-0,6.384 -5.175,11.559 -11.56,11.559l-95.097,0l-0,73.695c-0,3.066 -1.218,6.006 -3.386,8.174c-2.168,2.168 -5.108,3.386 -8.173,3.386c-10.076,-0 -24.614,-0 -34.69,-0c-3.065,-0 -6.005,-1.218 -8.173,-3.386c-2.168,-2.168 -3.386,-5.108 -3.386,-8.174l0,-73.695Zm28.904,-129.604c23.962,0 43.417,19.455 43.417,43.417c-0,23.963 -19.455,43.417 -43.417,43.417c-23.962,0 -43.417,-19.454 -43.417,-43.417c0,-23.962 19.455,-43.417 43.417,-43.417Z" style="fill:#c7c7cc;"/><path d="M13.929,133.552c-0,-0.03 -0,-0.06 -0,-0.089c0.03,-3.876 2,-7.478 5.246,-9.594c40.816,-26.61 154.931,-101.007 183.032,-119.327c3.837,-2.502 8.789,-2.502 12.626,-0c28.094,18.316 142.163,92.683 183.004,119.309c3.249,2.118 5.219,5.725 5.246,9.604c0.027,3.878 -1.894,7.512 -5.114,9.675c-18.06,12.13 -46.566,31.278 -46.566,31.278c-0,-0 -108.931,-71.126 -136.568,-89.171c-3.838,-2.506 -8.793,-2.507 -12.633,-0.005c-27.67,18.038 -136.796,89.176 -136.796,89.176l-42.3,-28.521l-0,58.14c4.151,7.186 10.128,18.252 13.59,27.919c0.634,1.771 0.367,3.739 -0.716,5.276c-1.082,1.538 -2.845,2.453 -4.725,2.453c-7.364,-0 -18.112,-0 -25.475,-0c-1.881,-0 -3.644,-0.915 -4.726,-2.453c-1.083,-1.537 -1.35,-3.505 -0.716,-5.276c3.463,-9.667 9.439,-20.733 13.591,-27.919l-0,-70.475l-0,0Z" style="fill:#c7c7cc;"/></g></svg>