<?xml version="1.0" encoding="UTF-8" standalone="no"?><!DOCTYPE svg PUBLIC "-//W3C//DTD SVG 1.1//EN" "http://www.w3.org/Graphics/SVG/1.1/DTD/svg11.dtd"><svg width="100%" height="100%" viewBox="0 0 2021 1884" version="1.1" xmlns="http://www.w3.org/2000/svg" xmlns:xlink="http://www.w3.org/1999/xlink" xml:space="preserve" xmlns:serif="http://www.serif.com/" style="fill-rule:evenodd;clip-rule:evenodd;stroke-linejoin:round;stroke-miterlimit:2;"><g id="FullColour"><path d="M900.063,1456.65l-476.591,0c-31.921,0 -57.798,-25.877 -57.798,-57.798c0,-142.952 0,-501.604 0,-501.604c0,0 513.059,-334.487 646.795,-421.675c19.185,-12.508 43.946,-12.508 63.131,-0c133.736,87.188 646.795,421.675 646.795,421.675l0,501.604c0,31.921 -25.877,57.798 -57.797,57.798l-475.493,0l0,368.479c0,15.329 -6.089,30.03 -16.928,40.87c-10.839,10.839 -25.54,16.928 -40.869,16.928c-50.379,0 -123.068,0 -173.447,0c-15.329,0 -30.03,-6.089 -40.869,-16.928c-10.84,-10.84 -16.929,-25.541 -16.929,-40.87l0,-368.479Zm144.521,-648.026c119.814,-0 217.087,97.273 217.087,217.087c0,119.813 -97.273,217.087 -217.087,217.087c-119.813,-0 -217.087,-97.274 -217.087,-217.087c0,-119.814 97.274,-217.087 217.087,-217.087Z" style="fill:#303032;"/><path d="M71.648,654.845c-0,-0.151 0,-0.3 0.001,-0.449c0.15,-19.376 10,-37.388 26.231,-47.97c204.084,-133.052 774.664,-505.039 915.168,-596.64c19.186,-12.508 43.946,-12.508 63.131,-0c140.473,91.58 710.824,463.419 915.029,596.549c16.247,10.592 26.098,28.627 26.231,48.021c0.133,19.394 -9.47,37.562 -25.57,48.376c-90.299,60.652 -232.835,156.391 -232.835,156.391c-0,0 -544.66,-355.63 -682.847,-445.857c-19.187,-12.529 -43.965,-12.538 -63.162,-0.024c-138.352,90.19 -683.989,445.881 -683.989,445.881l-211.502,-142.603l-0,290.703c20.756,35.93 50.64,91.259 67.951,139.596c3.17,8.852 1.836,18.692 -3.577,26.38c-5.413,7.688 -14.227,12.262 -23.63,12.262c-36.816,0 -90.559,0 -127.375,0c-9.402,0 -18.217,-4.574 -23.63,-12.262c-5.412,-7.688 -6.747,-17.528 -3.577,-26.38c17.311,-48.337 47.195,-103.666 67.952,-139.596l-0,-352.378l-0,-0Z" style="fill:#1a83fe;"/></g></svg>