<?xml version="1.0" encoding="UTF-8" standalone="no"?><!DOCTYPE svg PUBLIC "-//W3C//DTD SVG 1.1//EN" "http://www.w3.org/Graphics/SVG/1.1/DTD/svg11.dtd"><svg width="100%" height="100%" viewBox="0 0 1080 1009" version="1.1" xmlns="http://www.w3.org/2000/svg" xmlns:xlink="http://www.w3.org/1999/xlink" xml:space="preserve" xmlns:serif="http://www.serif.com/" style="fill-rule:evenodd;clip-rule:evenodd;stroke-linejoin:round;stroke-miterlimit:2;"><g id="InvertedColour"><path d="M480.343,779.111l-254.446,-0c-17.042,-0 -30.858,-13.816 -30.858,-30.858c0,-76.32 0,-267.8 0,-267.8c0,-0 273.916,-178.579 345.317,-225.128c10.242,-6.678 23.462,-6.678 33.704,0c71.401,46.549 345.317,225.128 345.317,225.128l-0,267.8c-0,17.042 -13.816,30.858 -30.858,30.858l-253.86,-0l0,196.727c0.001,8.183 -3.251,16.032 -9.037,21.819c-5.787,5.787 -13.636,9.038 -21.82,9.038c-26.897,0 -65.705,0 -92.601,0c-8.184,0 -16.033,-3.251 -21.82,-9.038c-5.787,-5.787 -9.038,-13.636 -9.038,-21.819l0,-196.727Zm77.158,-345.974c63.967,0 115.901,51.933 115.901,115.9c-0,63.967 -51.934,115.901 -115.901,115.901c-63.967,-0 -115.9,-51.934 -115.9,-115.901c0,-63.967 51.933,-115.9 115.9,-115.9Z" style="fill:#fff;"/><path d="M38.062,351.036c-0,-0.081 0,-0.16 0.001,-0.24c0.08,-10.344 5.338,-19.961 14.004,-25.61c108.958,-71.035 413.584,-269.635 488.598,-318.54c10.242,-6.677 23.462,-6.677 33.705,0c74.996,48.894 379.5,247.414 488.523,318.491c8.674,5.655 13.933,15.283 14.004,25.638c0.071,10.354 -5.056,20.054 -13.651,25.827c-48.21,32.382 -124.308,83.496 -124.308,83.496c-0,-0 -290.788,-189.867 -364.564,-238.038c-10.244,-6.689 -23.473,-6.694 -33.722,-0.013c-73.865,48.151 -365.174,238.051 -365.174,238.051l-112.918,-76.134l-0,155.202c11.082,19.183 27.036,48.722 36.278,74.529c1.693,4.726 0.98,9.98 -1.909,14.084c-2.89,4.105 -7.596,6.547 -12.616,6.547c-19.656,-0 -48.348,-0 -68.004,-0c-5.02,-0 -9.726,-2.442 -12.616,-6.547c-2.89,-4.104 -3.602,-9.358 -1.91,-14.084c9.243,-25.807 25.197,-55.346 36.279,-74.529l-0,-188.13l-0,-0Z" style="fill:#1a83fe;"/></g></svg>