<?xml version="1.0" encoding="UTF-8" standalone="no"?><!DOCTYPE svg PUBLIC "-//W3C//DTD SVG 1.1//EN" "http://www.w3.org/Graphics/SVG/1.1/DTD/svg11.dtd"><svg width="100%" height="100%" viewBox="0 0 1080 1009" version="1.1" xmlns="http://www.w3.org/2000/svg" xmlns:xlink="http://www.w3.org/1999/xlink" xml:space="preserve" xmlns:serif="http://www.serif.com/" style="fill-rule:evenodd;clip-rule:evenodd;stroke-linejoin:round;stroke-miterlimit:2;"><g id="MonochromeLight"><path d="M480.331,779.17l-254.502,0c-17.046,0 -30.864,-13.818 -30.864,-30.864c0,-76.337 0,-267.858 0,-267.858c0,-0 273.975,-178.618 345.391,-225.177c10.245,-6.679 23.467,-6.679 33.712,0c71.416,46.559 345.391,225.177 345.391,225.177l-0,267.858c-0,17.046 -13.819,30.864 -30.864,30.864l-253.915,0l0,196.769c0,8.186 -3.252,16.036 -9.04,21.825c-5.788,5.788 -13.638,9.04 -21.824,9.04c-26.902,-0 -65.719,-0 -92.621,-0c-8.186,-0 -16.036,-3.252 -21.825,-9.04c-5.788,-5.789 -9.04,-13.639 -9.039,-21.825l-0,-196.769Zm77.174,-346.048c63.981,-0 115.926,51.944 115.926,115.925c-0,63.981 -51.945,115.925 -115.926,115.925c-63.981,0 -115.925,-51.944 -115.925,-115.925c0,-63.981 51.944,-115.925 115.925,-115.925Z" style="fill:#fff;"/><path d="M37.954,351.003c-0,-0.081 0,-0.16 0.001,-0.24c0.08,-10.347 5.339,-19.965 14.007,-25.616c108.982,-71.05 413.673,-269.692 488.703,-318.608c10.245,-6.679 23.467,-6.679 33.712,0c75.013,48.904 379.583,247.467 488.629,318.559c8.675,5.657 13.936,15.287 14.007,25.644c0.071,10.356 -5.057,20.058 -13.654,25.833c-48.221,32.388 -124.335,83.513 -124.335,83.513c-0,0 -290.85,-189.907 -364.643,-238.089c-10.246,-6.69 -23.477,-6.695 -33.728,-0.013c-73.881,48.162 -365.253,238.102 -365.253,238.102l-112.943,-76.15l0,155.236c11.084,19.187 27.042,48.733 36.286,74.545c1.693,4.727 0.981,9.981 -1.91,14.087c-2.89,4.105 -7.597,6.548 -12.618,6.548c-19.66,-0 -48.359,-0 -68.019,-0c-5.021,-0 -9.728,-2.443 -12.618,-6.548c-2.891,-4.106 -3.603,-9.36 -1.91,-14.087c9.244,-25.812 25.202,-55.358 36.286,-74.545l-0,-188.171l-0,-0Z" style="fill:#fff;"/></g></svg>