<?xml version="1.0" encoding="UTF-8" standalone="no"?><!DOCTYPE svg PUBLIC "-//W3C//DTD SVG 1.1//EN" "http://www.w3.org/Graphics/SVG/1.1/DTD/svg11.dtd"><svg width="100%" height="100%" viewBox="0 0 1642 342" version="1.1" xmlns="http://www.w3.org/2000/svg" xmlns:xlink="http://www.w3.org/1999/xlink" xml:space="preserve" xmlns:serif="http://www.serif.com/" style="fill-rule:evenodd;clip-rule:evenodd;stroke-linejoin:round;stroke-miterlimit:2;"><g id="InvertedColour"><g><path d="M472.578,77.807c1.933,-0.529 4.002,-0.126 5.596,1.091c1.593,1.216 2.528,3.105 2.528,5.11l-0,122.524c-0,13.095 3.222,23.175 9.665,30.242c6.443,7.067 15.901,10.601 28.372,10.601c12.471,-0 22.032,-3.534 28.683,-10.601c6.652,-7.067 9.977,-17.147 9.977,-30.242l0,-111.462c0,-2.897 1.938,-5.436 4.733,-6.201c9.109,-2.49 29.17,-7.976 40.457,-11.062c1.933,-0.529 4.003,-0.126 5.596,1.091c1.593,1.216 2.528,3.105 2.528,5.11l0,122.212c0,19.538 -4.157,36.062 -12.471,49.573c-8.314,13.51 -19.486,23.695 -33.516,30.554c-14.03,6.859 -29.671,10.289 -46.923,10.289c-17.251,-0 -32.684,-3.378 -46.299,-10.133c-13.614,-6.755 -24.37,-16.94 -32.269,-30.554c-7.898,-13.615 -11.847,-30.191 -11.847,-49.729l-0,-111.15c-0,-2.897 1.938,-5.436 4.733,-6.201c9.108,-2.49 29.17,-7.976 40.457,-11.062Z" style="fill:#1a83fe;fill-rule:nonzero;"/><path d="M754.131,118.611c20.369,-0 36.634,6.599 48.793,19.797c12.16,13.199 18.239,31.334 18.239,54.406l0,84.656c0,2.894 -1.933,5.431 -4.724,6.198c-9.048,2.489 -28.921,7.955 -40.144,11.042c-1.935,0.532 -4.006,0.131 -5.602,-1.085c-1.596,-1.216 -2.532,-3.107 -2.532,-5.113l-0,-88.527c-0,-11.64 -3.014,-20.682 -9.042,-27.125c-6.027,-6.444 -14.134,-9.665 -24.318,-9.665c-10.185,-0 -18.291,3.221 -24.319,9.665c-6.028,6.443 -9.041,15.485 -9.041,27.124l-0,77.478c-0,2.898 -1.939,5.437 -4.734,6.201c-9.108,2.491 -29.169,7.977 -40.456,11.063c-1.934,0.529 -4.003,0.125 -5.596,-1.091c-1.594,-1.216 -2.528,-3.106 -2.528,-5.11c-0,-29.216 -0,-125.663 -0,-148.559c-0,-2.897 1.938,-5.436 4.733,-6.201c9.108,-2.49 29.169,-7.976 40.456,-11.062c1.934,-0.529 4.003,-0.126 5.596,1.091c1.594,1.216 2.529,3.105 2.529,5.11c-0,1.393 -0,2.853 -0,4.287c-0,1.558 0.937,2.963 2.376,3.561c1.438,0.598 3.095,0.272 4.2,-0.826c4.292,-4.221 9.386,-7.748 15.248,-10.612c9.145,-4.469 19.434,-6.703 30.866,-6.703Z" style="fill:#1a83fe;fill-rule:nonzero;"/><path d="M885.078,102.398c-9.354,0 -16.992,-2.754 -22.916,-8.262c-5.924,-5.508 -8.886,-12.315 -8.886,-20.421c0,-8.315 2.962,-15.226 8.886,-20.734c5.924,-5.508 13.562,-8.262 22.916,-8.262c9.145,0 16.68,2.754 22.604,8.262c5.923,5.508 8.885,12.419 8.885,20.734c0,8.106 -2.962,14.913 -8.885,20.421c-5.924,5.508 -13.459,8.262 -22.604,8.262Zm18.376,20.305c1.934,-0.529 4.003,-0.126 5.597,1.091c1.593,1.216 2.528,3.105 2.528,5.11c-0,29.216 -0,125.663 -0,148.558c-0,2.898 -1.938,5.437 -4.733,6.201c-9.109,2.491 -29.17,7.977 -40.457,11.063c-1.933,0.529 -4.003,0.125 -5.596,-1.091c-1.593,-1.216 -2.528,-3.106 -2.528,-5.11c-0,-29.216 -0,-125.663 -0,-148.559c-0,-2.897 1.938,-5.436 4.733,-6.201c9.108,-2.49 29.17,-7.976 40.456,-11.062Z" style="fill:#1a83fe;fill-rule:nonzero;"/><path d="M1146.04,277.462c-0,2.898 -1.939,5.437 -4.733,6.201c-10.182,2.784 -34.05,9.311 -44.049,12.045c-2.699,0.738 -5.566,-0.355 -7.089,-2.703c-11.775,-18.156 -60.993,-94.048 -79.518,-122.614c-0.93,-1.433 -2.692,-2.085 -4.331,-1.6c-1.639,0.485 -2.763,1.99 -2.763,3.699c0,26.864 0,87.347 0,104.972c0,2.898 -1.938,5.437 -4.733,6.201c-9.108,2.491 -29.17,7.977 -40.456,11.063c-1.934,0.529 -4.003,0.125 -5.597,-1.091c-1.593,-1.216 -2.528,-3.106 -2.528,-5.11c0,-34.738 0,-166.333 0,-193.455c0,-2.897 1.938,-5.436 4.733,-6.201c10.192,-2.786 34.097,-9.323 44.078,-12.053c2.686,-0.734 5.538,0.344 7.068,2.67c11.791,17.934 61.012,92.798 79.523,120.954c0.937,1.424 2.697,2.065 4.329,1.576c1.633,-0.489 2.752,-1.991 2.752,-3.695c-0,-26.443 -0,-85.809 -0,-103.251c-0,-2.897 1.938,-5.436 4.733,-6.201c9.108,-2.49 29.17,-7.976 40.456,-11.062c1.934,-0.529 4.003,-0.126 5.596,1.091c1.594,1.216 2.529,3.105 2.529,5.11c-0,34.738 -0,166.333 -0,193.454Z" style="fill:#fff;fill-rule:nonzero;"/><path d="M1348.69,204.661c0,3.132 -0.123,6.345 -0.368,9.64c-0.251,3.353 -3.045,5.945 -6.407,5.945c-20.98,0.004 -92.263,0.004 -110.527,0.004c-1.128,-0 -2.199,0.494 -2.932,1.351c-0.733,0.857 -1.054,1.992 -0.879,3.106c1.394,8.647 4.704,15.425 9.964,20.329c6.132,5.716 13.667,8.574 22.604,8.574c11.984,0 20.678,-4.554 26.083,-13.662c1.151,-1.944 3.242,-3.137 5.501,-3.137c8.997,-0.037 31.642,-0.037 44.193,-0.037c2.103,0 4.073,1.028 5.275,2.753c1.203,1.725 1.485,3.929 0.757,5.902c-3.097,8.021 -7.437,15.431 -13.062,22.211c-7.586,9.146 -17.095,16.317 -28.527,21.513c-11.432,5.196 -24.215,7.794 -38.349,7.794c-17.044,0 -32.217,-3.637 -45.52,-10.912c-13.302,-7.275 -23.695,-17.667 -31.177,-31.178c-7.483,-13.51 -11.224,-29.307 -11.224,-47.39c-0,-18.083 3.689,-33.88 11.068,-47.39c7.379,-13.51 17.719,-23.903 31.022,-31.178c13.302,-7.275 28.579,-10.912 45.831,-10.912c16.836,-0 31.801,3.533 44.896,10.6c13.095,7.067 23.331,17.148 30.71,30.243c7.379,13.095 11.068,28.372 11.068,45.831Zm-58.624,-14.03c1.105,0 2.158,-0.474 2.89,-1.302c0.732,-0.828 1.074,-1.931 0.939,-3.028c-0.867,-7.14 -3.901,-12.972 -9.119,-17.494c-6.236,-5.404 -14.03,-8.106 -23.384,-8.106c-8.937,-0 -16.472,2.598 -22.603,7.794c-5.063,4.29 -8.531,10.068 -10.406,17.333c-0.292,1.142 -0.04,2.354 0.682,3.285c0.723,0.931 1.835,1.476 3.014,1.476c12.447,0.042 46.267,0.042 57.987,0.042Z" style="fill:#fff;fill-rule:nonzero;"/><path d="M1443.88,296.947c-15.173,0 -28.683,-2.598 -40.531,-7.794c-11.847,-5.196 -21.201,-12.315 -28.06,-21.357c-5.264,-6.939 -8.753,-14.521 -10.467,-22.746c-0.366,-1.866 0.123,-3.797 1.331,-5.265c1.208,-1.468 3.009,-2.319 4.91,-2.319c10.807,-0.068 30.781,-0.068 40.203,-0.068c2.774,0 5.235,1.78 6.104,4.414c1.283,4.048 3.785,7.459 7.492,10.239c4.988,3.742 11.12,5.612 18.395,5.612c6.651,0 11.795,-1.299 15.433,-3.897c3.637,-2.598 5.456,-5.976 5.456,-10.133c-0,-4.988 -2.598,-8.677 -7.795,-11.068c-5.196,-2.39 -13.614,-5.04 -25.254,-7.95c-12.471,-2.91 -22.863,-5.976 -31.177,-9.197c-8.315,-3.222 -15.485,-8.315 -21.513,-15.278c-6.028,-6.963 -9.042,-16.368 -9.042,-28.215c0,-9.977 2.754,-19.071 8.262,-27.281c5.509,-8.21 13.615,-14.706 24.319,-19.486c10.704,-4.781 23.435,-7.171 38.193,-7.171c21.824,-0 39.024,5.404 51.599,16.212c10.708,9.204 17.535,20.969 20.481,35.296c0.392,1.888 -0.088,3.852 -1.305,5.348c-1.217,1.495 -3.043,2.363 -4.971,2.363c-10.137,0.019 -27.988,0.019 -36.711,0.019c-2.762,-0 -5.214,-1.764 -6.094,-4.382c-1.3,-4.013 -3.618,-7.331 -6.943,-9.96c-4.468,-3.533 -10.34,-5.3 -17.615,-5.3c-6.236,-0 -11.016,1.195 -14.342,3.585c-3.325,2.391 -4.988,5.664 -4.988,9.821c-0,4.989 2.65,8.73 7.95,11.224c5.3,2.494 13.562,4.989 24.786,7.483c12.887,3.326 23.384,6.599 31.49,9.821c8.106,3.222 15.225,8.418 21.357,15.589c6.131,7.171 9.301,16.784 9.509,28.839c0,10.185 -2.858,19.278 -8.574,27.281c-5.716,8.002 -13.926,14.29 -24.63,18.862c-10.705,4.573 -23.124,6.859 -37.258,6.859Z" style="fill:#fff;fill-rule:nonzero;"/><path d="M1633.97,249.245c1.705,0 3.34,0.678 4.546,1.883c1.206,1.206 1.883,2.841 1.883,4.546c-0,8.598 -0,23.753 -0,32.351c-0,3.55 -2.878,6.428 -6.429,6.428l-20.696,0c-19.33,0 -34.399,-4.728 -45.207,-14.186c-10.809,-9.457 -16.213,-24.89 -16.213,-46.299l0,-62.786c0,-1.705 -0.677,-3.34 -1.883,-4.545c-1.205,-1.206 -2.841,-1.883 -4.546,-1.883l-8.343,-0c-3.551,-0 -6.429,-2.879 -6.429,-6.429c0,-8.398 0,-23.017 0,-31.415c0,-3.551 2.878,-6.429 6.429,-6.429c2.644,0 5.7,0 8.343,0c3.551,0 6.429,-2.878 6.429,-6.428c0,-5.024 0,-11.901 0,-16.488c0,-2.898 1.938,-5.437 4.733,-6.201c9.109,-2.491 29.17,-7.977 40.457,-11.063c1.933,-0.529 4.003,-0.125 5.596,1.091c1.593,1.216 2.528,3.106 2.528,5.11c0,8.107 0,20.19 0,27.551c0,1.705 0.677,3.34 1.883,4.545c1.206,1.206 2.841,1.883 4.546,1.883c6.279,0 15.782,0 22.062,0c3.55,0 6.428,2.878 6.428,6.429c0,8.398 0,23.017 0,31.415c0,3.55 -2.878,6.429 -6.428,6.429c-6.28,-0 -15.783,-0 -22.062,-0c-3.551,-0 -6.429,2.878 -6.429,6.428l0,63.41c0,5.196 1.247,8.938 3.741,11.224c2.495,2.286 6.652,3.429 12.472,3.429l12.589,0Z" style="fill:#fff;fill-rule:nonzero;"/></g><g><path d="M163.869,262.481l-84.816,0c-5.681,0 -10.286,-4.605 -10.286,-10.285c0,-25.441 0,-89.267 0,-89.267c0,-0 91.306,-59.527 115.106,-75.043c3.414,-2.226 7.82,-2.226 11.235,0c23.8,15.516 115.105,75.043 115.105,75.043l0,89.267c0,5.68 -4.605,10.285 -10.286,10.285l-84.62,0l0,65.576c0,2.728 -1.083,5.344 -3.012,7.273c-1.929,1.929 -4.546,3.013 -7.274,3.013c-8.965,-0 -21.901,-0 -30.867,-0c-2.728,-0 -5.344,-1.084 -7.273,-3.013c-1.929,-1.929 -3.013,-4.545 -3.012,-7.273l-0,-65.576Zm25.719,-115.324c21.322,-0 38.633,17.311 38.633,38.633c0,21.323 -17.311,38.634 -38.633,38.634c-21.322,-0 -38.634,-17.311 -38.634,-38.634c0,-21.322 17.312,-38.633 38.634,-38.633Z" style="fill:#fff;"/><path d="M16.441,119.79c0,-0.027 0.001,-0.054 0.001,-0.08c0.026,-3.448 1.779,-6.654 4.668,-8.537c36.319,-23.678 137.861,-89.878 162.866,-106.18c3.414,-2.226 7.82,-2.226 11.235,0c24.999,16.298 126.5,82.472 162.841,106.164c2.891,1.885 4.644,5.094 4.668,8.546c0.023,3.451 -1.685,6.684 -4.551,8.609c-16.07,10.794 -41.436,27.832 -41.436,27.832c0,-0 -96.929,-63.289 -121.521,-79.346c-3.415,-2.23 -7.824,-2.232 -11.24,-0.005c-24.622,16.051 -121.725,79.351 -121.725,79.351l-37.64,-25.378l0,51.734c3.694,6.394 9.013,16.241 12.093,24.843c0.564,1.575 0.327,3.326 -0.636,4.695c-0.964,1.368 -2.532,2.182 -4.206,2.182c-6.551,-0 -16.116,-0 -22.668,-0c-1.673,-0 -3.242,-0.814 -4.205,-2.182c-0.963,-1.369 -1.201,-3.12 -0.636,-4.695c3.08,-8.602 8.399,-18.449 12.092,-24.843l0,-62.71l0,-0Z" style="fill:#1a83fe;"/></g></g></svg>