<?xml version="1.0" encoding="UTF-8" standalone="no"?><!DOCTYPE svg PUBLIC "-//W3C//DTD SVG 1.1//EN" "http://www.w3.org/Graphics/SVG/1.1/DTD/svg11.dtd"><svg width="100%" height="100%" viewBox="0 0 3071 634" version="1.1" xmlns="http://www.w3.org/2000/svg" xmlns:xlink="http://www.w3.org/1999/xlink" xml:space="preserve" xmlns:serif="http://www.serif.com/" style="fill-rule:evenodd;clip-rule:evenodd;stroke-linejoin:round;stroke-miterlimit:2;"><g id="FullColour"><g><path d="M879.82,142.423c3.621,-0.99 7.497,-0.235 10.482,2.043c2.984,2.278 4.735,5.818 4.735,9.572l0,229.494c0,24.527 6.034,43.409 18.103,56.646c12.069,13.236 29.783,19.855 53.142,19.855c23.359,-0 41.268,-6.619 53.726,-19.855c12.458,-13.237 18.687,-32.119 18.687,-56.646l0,-208.773c0,-5.427 3.63,-10.184 8.865,-11.615c17.061,-4.665 54.637,-14.94 75.778,-20.721c3.621,-0.99 7.497,-0.235 10.481,2.043c2.985,2.278 4.736,5.818 4.736,9.572l-0,228.91c-0,36.596 -7.786,67.546 -23.359,92.852c-15.573,25.306 -36.499,44.382 -62.777,57.23c-26.279,12.847 -55.576,19.271 -87.889,19.271c-32.313,-0 -61.22,-6.327 -86.72,-18.979c-25.501,-12.653 -45.648,-31.73 -60.442,-57.23c-14.794,-25.5 -22.191,-56.548 -22.191,-93.144l0,-208.189c0,-5.427 3.631,-10.184 8.865,-11.615c17.061,-4.665 54.637,-14.94 75.778,-20.721Z" style="fill:#1a83fe;fill-rule:nonzero;"/><path d="M1407.18,218.851c38.153,-0 68.617,12.361 91.392,37.082c22.775,24.722 34.163,58.69 34.163,101.904l-0,158.565c-0,5.421 -3.622,10.173 -8.848,11.61c-16.948,4.662 -54.172,14.9 -75.194,20.683c-3.623,0.996 -7.503,0.244 -10.492,-2.033c-2.988,-2.278 -4.742,-5.82 -4.742,-9.578l-0,-165.816c-0,-21.801 -5.645,-38.737 -16.936,-50.805c-11.29,-12.069 -26.473,-18.104 -45.55,-18.104c-19.076,0 -34.26,6.035 -45.55,18.104c-11.29,12.068 -16.935,29.004 -16.935,50.805l-0,145.12c-0,5.427 -3.63,10.184 -8.865,11.615c-17.061,4.665 -54.637,14.94 -75.778,20.721c-3.621,0.99 -7.497,0.235 -10.481,-2.043c-2.985,-2.278 -4.736,-5.818 -4.736,-9.572c0,-54.723 0,-235.373 0,-278.258c0,-5.427 3.63,-10.183 8.865,-11.614c17.061,-4.666 54.637,-14.941 75.778,-20.721c3.621,-0.991 7.497,-0.235 10.481,2.043c2.985,2.278 4.736,5.817 4.736,9.571c-0,2.611 -0,5.344 -0,8.031c0.001,2.918 1.756,5.549 4.451,6.669c2.694,1.121 5.798,0.51 7.867,-1.547c8.039,-7.906 17.58,-14.511 28.56,-19.877c17.13,-8.37 36.401,-12.555 57.814,-12.555Z" style="fill:#1a83fe;fill-rule:nonzero;"/><path d="M1652.45,188.484c-17.52,-0 -31.827,-5.158 -42.923,-15.475c-11.095,-10.317 -16.643,-23.067 -16.643,-38.251c0,-15.572 5.548,-28.517 16.643,-38.834c11.096,-10.317 25.403,-15.476 42.923,-15.476c17.13,0 31.242,5.159 42.338,15.476c11.095,10.317 16.643,23.262 16.643,38.834c0,15.184 -5.548,27.934 -16.643,38.251c-11.096,10.317 -25.208,15.475 -42.338,15.475Zm34.42,38.032c3.622,-0.991 7.498,-0.235 10.482,2.043c2.984,2.278 4.736,5.817 4.736,9.571c-0,54.724 -0,235.373 -0,278.258c-0,5.427 -3.631,10.184 -8.866,11.615c-17.06,4.665 -54.636,14.94 -75.777,20.721c-3.621,0.99 -7.497,0.235 -10.482,-2.043c-2.984,-2.278 -4.735,-5.818 -4.735,-9.572c-0,-54.723 -0,-235.373 -0,-278.258c-0,-5.427 3.63,-10.183 8.865,-11.614c17.06,-4.666 54.637,-14.941 75.777,-20.721Z" style="fill:#1a83fe;fill-rule:nonzero;"/><path d="M2141.24,516.388c0,5.427 -3.63,10.184 -8.865,11.615c-19.07,5.215 -63.776,17.439 -82.505,22.56c-5.056,1.383 -10.426,-0.664 -13.278,-5.063c-22.055,-34.007 -114.242,-176.156 -148.942,-229.661c-1.742,-2.686 -5.043,-3.905 -8.112,-2.997c-3.069,0.908 -5.175,3.727 -5.175,6.928c0,50.318 0,163.606 0,196.618c0,5.427 -3.63,10.184 -8.865,11.615c-17.06,4.665 -54.637,14.94 -75.777,20.721c-3.622,0.99 -7.498,0.235 -10.482,-2.043c-2.984,-2.278 -4.735,-5.818 -4.735,-9.572c-0,-65.066 -0,-311.55 -0,-362.35c-0,-5.427 3.63,-10.184 8.865,-11.615c19.089,-5.22 63.865,-17.464 82.56,-22.576c5.03,-1.375 10.373,0.643 13.238,5c22.086,33.592 114.279,173.816 148.952,226.553c1.754,2.667 5.05,3.868 8.108,2.952c3.058,-0.915 5.154,-3.729 5.154,-6.921c-0,-49.528 -0,-160.725 -0,-193.393c-0,-5.427 3.63,-10.184 8.865,-11.615c17.06,-4.665 54.637,-14.94 75.777,-20.721c3.622,-0.99 7.498,-0.235 10.482,2.043c2.984,2.278 4.735,5.818 4.735,9.572c0,65.066 0,311.55 0,362.35Z" style="fill:#303032;fill-rule:nonzero;"/><path d="M2520.83,380.028c-0,5.865 -0.23,11.884 -0.691,18.056c-0.47,6.28 -5.702,11.135 -12,11.135c-39.297,0.008 -172.814,0.008 -207.022,0.008c-2.113,-0 -4.12,0.924 -5.493,2.53c-1.372,1.605 -1.974,3.731 -1.645,5.818c2.61,16.197 8.81,28.892 18.663,38.078c11.485,10.706 25.598,16.059 42.339,16.059c22.445,0 38.73,-8.53 48.854,-25.59c2.155,-3.642 6.072,-5.875 10.303,-5.875c16.852,-0.069 59.267,-0.069 82.777,-0.069c3.938,-0.001 7.628,1.924 9.88,5.155c2.252,3.231 2.781,7.359 1.418,11.054c-5.802,15.025 -13.93,28.903 -24.466,41.604c-14.21,17.13 -32.021,30.562 -53.434,40.294c-21.412,9.733 -45.355,14.6 -71.829,14.6c-31.924,-0 -60.344,-6.813 -85.26,-20.439c-24.916,-13.626 -44.382,-33.092 -58.398,-58.398c-14.015,-25.305 -21.023,-54.894 -21.023,-88.764c0,-33.871 6.911,-63.459 20.731,-88.764c13.821,-25.306 33.19,-44.772 58.106,-58.398c24.916,-13.626 53.531,-20.439 85.844,-20.439c31.535,-0 59.566,6.618 84.093,19.855c24.527,13.237 43.701,32.119 57.522,56.646c13.82,24.527 20.731,53.141 20.731,85.844Zm-109.807,-26.279c2.071,0.001 4.042,-0.888 5.414,-2.439c1.371,-1.551 2.011,-3.616 1.758,-5.671c-1.623,-13.374 -7.307,-24.298 -17.08,-32.768c-11.68,-10.122 -26.279,-15.184 -43.799,-15.184c-16.74,0 -30.853,4.867 -42.338,14.6c-9.482,8.035 -15.978,18.857 -19.489,32.465c-0.548,2.139 -0.076,4.41 1.277,6.154c1.354,1.743 3.437,2.763 5.644,2.763c23.315,0.08 86.661,0.08 108.613,0.08Z" style="fill:#303032;fill-rule:nonzero;"/><path d="M2699.12,552.885c-28.42,-0 -53.725,-4.867 -75.916,-14.6c-22.191,-9.732 -39.711,-23.067 -52.558,-40.002c-9.861,-12.998 -16.396,-27.199 -19.606,-42.605c-0.684,-3.495 0.23,-7.112 2.493,-9.862c2.263,-2.749 5.637,-4.342 9.198,-4.342c20.241,-0.128 57.653,-0.128 75.302,-0.128c5.196,0 9.805,3.333 11.433,8.267c2.402,7.582 7.088,13.972 14.032,19.179c9.344,7.008 20.828,10.512 34.455,10.512c12.458,-0 22.093,-2.433 28.906,-7.3c6.813,-4.866 10.22,-11.193 10.22,-18.979c-0,-9.344 -4.867,-16.254 -14.599,-20.731c-9.733,-4.477 -25.501,-9.441 -47.303,-14.892c-23.359,-5.45 -42.824,-11.192 -58.397,-17.227c-15.573,-6.034 -29.004,-15.572 -40.294,-28.615c-11.291,-13.042 -16.936,-30.658 -16.936,-52.849c0,-18.688 5.159,-35.72 15.476,-51.098c10.317,-15.378 25.5,-27.544 45.55,-36.499c20.05,-8.954 43.895,-13.431 71.537,-13.431c40.878,-0 73.094,10.122 96.648,30.367c20.055,17.237 32.843,39.274 38.362,66.109c0.733,3.537 -0.165,7.216 -2.445,10.017c-2.28,2.801 -5.7,4.427 -9.312,4.427c-18.985,0.035 -52.422,0.035 -68.761,0.035c-5.172,-0 -9.766,-3.304 -11.413,-8.207c-2.436,-7.516 -6.778,-13.732 -13.004,-18.656c-8.371,-6.618 -19.369,-9.927 -32.995,-9.927c-11.68,-0 -20.634,2.238 -26.863,6.715c-6.229,4.478 -9.344,10.609 -9.344,18.396c0,9.343 4.964,16.351 14.892,21.023c9.927,4.672 25.403,9.343 46.426,14.015c24.138,6.229 43.798,12.361 58.981,18.395c15.184,6.035 28.518,15.768 40.003,29.199c11.485,13.432 17.422,31.438 17.811,54.018c0,19.077 -5.353,36.109 -16.059,51.098c-10.707,14.989 -26.085,26.765 -46.134,35.33c-20.05,8.565 -43.312,12.848 -69.786,12.848Z" style="fill:#303032;fill-rule:nonzero;"/><path d="M3055.16,463.537c3.194,-0 6.256,1.268 8.515,3.526c2.258,2.259 3.526,5.321 3.526,8.515c0,16.104 0,44.49 0,60.594c0,6.65 -5.391,12.041 -12.041,12.041l-38.765,0c-36.206,0 -64.431,-8.857 -84.676,-26.571c-20.244,-17.714 -30.367,-46.621 -30.367,-86.72l0,-117.602c0,-3.193 -1.268,-6.256 -3.526,-8.514c-2.259,-2.258 -5.321,-3.527 -8.515,-3.527l-15.628,0c-6.65,0 -12.041,-5.391 -12.041,-12.041c-0,-15.73 -0,-43.113 -0,-58.842c-0,-6.65 5.391,-12.041 12.041,-12.041c4.952,-0 10.676,-0 15.628,-0c6.65,-0 12.041,-5.391 12.041,-12.042c0,-9.409 0,-22.291 0,-30.882c0,-5.427 3.631,-10.184 8.866,-11.615c17.06,-4.665 54.636,-14.94 75.777,-20.721c3.621,-0.99 7.497,-0.235 10.482,2.043c2.984,2.278 4.735,5.817 4.735,9.572c0,15.185 0,37.817 0,51.603c0,3.194 1.269,6.257 3.527,8.515c2.258,2.258 5.321,3.527 8.514,3.527c11.762,-0 29.562,-0 41.323,-0c6.65,-0 12.041,5.391 12.041,12.041c0,15.729 0,43.112 0,58.842c0,6.65 -5.391,12.041 -12.041,12.041c-11.761,0 -29.561,0 -41.323,0c-6.65,0 -12.041,5.391 -12.041,12.041l0,118.77c0,9.733 2.336,16.74 7.008,21.023c4.672,4.282 12.458,6.424 23.359,6.424l23.581,-0Z" style="fill:#303032;fill-rule:nonzero;"/></g><g><path d="M301.592,488.328l-158.864,0c-10.64,0 -19.266,-8.626 -19.266,-19.266c0,-47.651 0,-167.201 0,-167.201c0,-0 171.02,-111.496 215.599,-140.559c6.395,-4.169 14.648,-4.169 21.043,0c44.579,29.063 215.599,140.559 215.599,140.559l-0,167.201c-0,10.64 -8.626,19.266 -19.266,19.266l-158.497,0l-0,122.827c-0,5.109 -2.03,10.01 -5.643,13.623c-3.613,3.613 -8.514,5.643 -13.623,5.643c-16.793,-0 -41.023,-0 -57.816,-0c-5.11,-0 -10.01,-2.03 -13.623,-5.643c-3.613,-3.613 -5.643,-8.514 -5.643,-13.623l0,-122.827Zm48.174,-216.009c39.938,0 72.362,32.425 72.362,72.363c0,39.938 -32.424,72.362 -72.362,72.362c-39.938,0 -72.363,-32.424 -72.363,-72.362c0,-39.938 32.425,-72.363 72.363,-72.363Z" style="fill:#303032;"/><path d="M25.454,221.059c-0,-0.05 -0,-0.1 0,-0.149c0.05,-6.459 3.333,-12.463 8.744,-15.99c68.028,-44.351 258.221,-168.346 305.056,-198.88c6.395,-4.17 14.648,-4.17 21.043,-0c46.825,30.527 236.942,154.473 305.01,198.849c5.416,3.531 8.699,9.543 8.744,16.007c0.044,6.465 -3.157,12.521 -8.524,16.126c-30.099,20.217 -77.611,52.13 -77.611,52.13c-0,0 -181.554,-118.543 -227.616,-148.619c-6.396,-4.176 -14.655,-4.179 -21.054,-0.008c-46.117,30.063 -227.996,148.627 -227.996,148.627l-70.501,-47.534l-0,96.901c6.919,11.977 16.88,30.419 22.65,46.532c1.057,2.95 0.612,6.231 -1.192,8.793c-1.804,2.563 -4.742,4.088 -7.877,4.088c-12.272,-0 -30.186,-0 -42.458,-0c-3.134,-0 -6.072,-1.525 -7.877,-4.088c-1.804,-2.562 -2.249,-5.843 -1.192,-8.793c5.77,-16.113 15.732,-34.555 22.651,-46.532l-0,-117.46l-0,0Z" style="fill:#1a83fe;"/></g></g></svg>