<?xml version="1.0" encoding="UTF-8" standalone="no"?><!DOCTYPE svg PUBLIC "-//W3C//DTD SVG 1.1//EN" "http://www.w3.org/Graphics/SVG/1.1/DTD/svg11.dtd"><svg width="100%" height="100%" viewBox="0 0 617 130" version="1.1" xmlns="http://www.w3.org/2000/svg" xmlns:xlink="http://www.w3.org/1999/xlink" xml:space="preserve" xmlns:serif="http://www.serif.com/" style="fill-rule:evenodd;clip-rule:evenodd;stroke-linejoin:round;stroke-miterlimit:2;"><g id="Watermark"><g><path d="M175.518,31.566c0.724,-0.198 1.5,-0.047 2.096,0.409c0.597,0.455 0.948,1.163 0.948,1.914l-0,45.899c-0,4.906 1.206,8.682 3.62,11.33c2.414,2.647 5.957,3.971 10.629,3.971c4.672,-0 8.253,-1.324 10.745,-3.971c2.492,-2.648 3.737,-6.424 3.737,-11.33l0,-41.755c0,-1.085 0.727,-2.036 1.774,-2.323c3.412,-0.933 10.927,-2.988 15.155,-4.144c0.724,-0.198 1.5,-0.047 2.097,0.409c0.596,0.455 0.947,1.163 0.947,1.914l-0,45.783c-0,7.319 -1.558,13.509 -4.672,18.57c-3.115,5.061 -7.3,8.877 -12.556,11.446c-5.256,2.57 -11.115,3.855 -17.578,3.855c-6.462,-0 -12.244,-1.266 -17.344,-3.796c-5.1,-2.531 -9.13,-6.346 -12.088,-11.446c-2.959,-5.1 -4.439,-11.31 -4.439,-18.629l0,-41.639c0,-1.085 0.726,-2.036 1.773,-2.323c3.413,-0.933 10.928,-2.988 15.156,-4.144Z" style="fill:#c7c7cc;fill-rule:nonzero;"/><path d="M280.992,46.852c7.631,-0 13.724,2.472 18.279,7.416c4.555,4.945 6.832,11.738 6.832,20.381l0,31.714c0,1.084 -0.724,2.034 -1.769,2.322c-3.39,0.932 -10.835,2.98 -15.039,4.136c-0.725,0.2 -1.501,0.049 -2.099,-0.406c-0.597,-0.456 -0.948,-1.164 -0.948,-1.916l-0,-33.163c-0,-4.361 -1.129,-7.748 -3.387,-10.162c-2.258,-2.413 -5.295,-3.62 -9.11,-3.62c-3.816,-0 -6.852,1.207 -9.11,3.62c-2.259,2.414 -3.388,5.801 -3.388,10.162l0,29.024c0,1.085 -0.726,2.037 -1.773,2.323c-3.412,0.933 -10.927,2.988 -15.155,4.144c-0.725,0.198 -1.5,0.047 -2.097,-0.408c-0.597,-0.456 -0.947,-1.164 -0.947,-1.915c0,-10.945 0,-47.075 0,-55.652c0,-1.085 0.726,-2.037 1.773,-2.323c3.412,-0.933 10.928,-2.988 15.156,-4.144c0.724,-0.198 1.499,-0.047 2.096,0.408c0.597,0.456 0.947,1.164 0.947,1.915c0,0.522 0,1.068 0,1.606c0.001,0.584 0.352,1.11 0.891,1.334c0.538,0.224 1.159,0.102 1.573,-0.31c1.608,-1.581 3.516,-2.902 5.712,-3.975c3.426,-1.674 7.281,-2.511 11.563,-2.511Z" style="fill:#c7c7cc;fill-rule:nonzero;"/><path d="M330.047,40.778c-3.504,0 -6.366,-1.031 -8.585,-3.095c-2.219,-2.063 -3.329,-4.613 -3.329,-7.65c0,-3.114 1.11,-5.703 3.329,-7.767c2.219,-2.063 5.081,-3.095 8.585,-3.095c3.426,0 6.248,1.032 8.467,3.095c2.219,2.064 3.329,4.653 3.329,7.767c-0,3.037 -1.11,5.587 -3.329,7.65c-2.219,2.064 -5.041,3.095 -8.467,3.095Zm6.884,7.607c0.724,-0.198 1.499,-0.047 2.096,0.408c0.597,0.456 0.947,1.164 0.947,1.915c0,10.945 0,47.075 0,55.652c0,1.085 -0.726,2.037 -1.773,2.323c-3.412,0.933 -10.927,2.988 -15.155,4.144c-0.725,0.198 -1.5,0.047 -2.097,-0.408c-0.597,-0.456 -0.947,-1.164 -0.947,-1.915c0,-10.945 0,-47.075 0,-55.652c0,-1.085 0.726,-2.037 1.773,-2.323c3.412,-0.933 10.928,-2.988 15.156,-4.144Z" style="fill:#c7c7cc;fill-rule:nonzero;"/><path d="M427.805,106.36c0,1.085 -0.726,2.037 -1.773,2.323c-3.814,1.043 -12.755,3.488 -16.501,4.512c-1.011,0.277 -2.085,-0.133 -2.656,-1.013c-4.411,-6.801 -22.848,-35.231 -29.789,-45.932c-0.348,-0.538 -1.008,-0.781 -1.622,-0.6c-0.614,0.182 -1.035,0.746 -1.035,1.386c0,10.064 0,32.721 0,39.324c0,1.085 -0.726,2.037 -1.773,2.323c-3.412,0.933 -10.927,2.988 -15.156,4.144c-0.724,0.198 -1.499,0.047 -2.096,-0.408c-0.597,-0.456 -0.947,-1.164 -0.947,-1.915c-0,-13.013 -0,-62.311 -0,-72.471c-0,-1.085 0.726,-2.036 1.773,-2.323c3.818,-1.044 12.773,-3.492 16.512,-4.515c1.006,-0.275 2.075,0.129 2.648,1c4.417,6.719 22.856,34.764 29.791,45.311c0.35,0.534 1.01,0.774 1.621,0.591c0.612,-0.183 1.031,-0.746 1.031,-1.385c-0,-9.905 -0,-32.145 -0,-38.679c-0,-1.085 0.726,-2.036 1.773,-2.323c3.412,-0.933 10.928,-2.988 15.156,-4.144c0.724,-0.198 1.499,-0.047 2.096,0.409c0.597,0.455 0.947,1.163 0.947,1.914c0,13.013 0,62.311 0,72.471Z" style="fill:#c7c7cc;fill-rule:nonzero;"/><path d="M503.723,79.088c-0,1.173 -0.046,2.376 -0.138,3.611c-0.094,1.256 -1.141,2.227 -2.4,2.227c-7.86,0.001 -34.563,0.001 -41.405,0.001c-0.423,0 -0.824,0.185 -1.099,0.506c-0.274,0.322 -0.394,0.747 -0.329,1.164c0.522,3.239 1.762,5.779 3.733,7.616c2.297,2.141 5.119,3.212 8.468,3.212c4.489,-0 7.746,-1.706 9.771,-5.118c0.431,-0.729 1.214,-1.176 2.06,-1.176c3.371,-0.013 11.854,-0.013 16.556,-0.013c0.788,-0 1.525,0.385 1.976,1.031c0.45,0.646 0.556,1.472 0.284,2.211c-1.161,3.005 -2.787,5.78 -4.894,8.32c-2.842,3.427 -6.404,6.113 -10.687,8.059c-4.282,1.947 -9.071,2.92 -14.366,2.92c-6.384,0 -12.069,-1.362 -17.052,-4.088c-4.983,-2.725 -8.876,-6.618 -11.679,-11.679c-2.804,-5.061 -4.205,-10.979 -4.205,-17.753c-0,-6.774 1.382,-12.692 4.146,-17.753c2.764,-5.061 6.638,-8.955 11.621,-11.68c4.984,-2.725 10.707,-4.088 17.169,-4.088c6.307,0 11.914,1.324 16.819,3.971c4.906,2.648 8.74,6.424 11.505,11.33c2.764,4.905 4.146,10.628 4.146,17.169Zm-21.962,-5.256c0.414,-0 0.809,-0.178 1.083,-0.488c0.274,-0.31 0.402,-0.723 0.352,-1.134c-0.325,-2.675 -1.462,-4.86 -3.416,-6.554c-2.336,-2.024 -5.256,-3.037 -8.76,-3.037c-3.348,0 -6.171,0.974 -8.468,2.92c-1.896,1.607 -3.196,3.772 -3.898,6.493c-0.109,0.428 -0.015,0.882 0.256,1.231c0.27,0.349 0.687,0.553 1.129,0.553c4.662,0.016 17.332,0.016 21.722,0.016Z" style="fill:#c7c7cc;fill-rule:nonzero;"/><path d="M539.382,113.659c-5.684,0 -10.745,-0.973 -15.184,-2.92c-4.438,-1.946 -7.942,-4.613 -10.511,-8c-1.972,-2.6 -3.279,-5.44 -3.921,-8.521c-0.137,-0.699 0.046,-1.423 0.498,-1.973c0.453,-0.549 1.128,-0.868 1.84,-0.868c4.048,-0.026 11.53,-0.026 15.06,-0.026c1.04,0 1.961,0.667 2.287,1.654c0.48,1.516 1.418,2.794 2.806,3.836c1.869,1.401 4.166,2.102 6.891,2.102c2.492,0 4.419,-0.487 5.782,-1.46c1.362,-0.973 2.044,-2.239 2.044,-3.796c-0,-1.869 -0.974,-3.251 -2.92,-4.146c-1.947,-0.896 -5.1,-1.888 -9.461,-2.978c-4.672,-1.091 -8.565,-2.239 -11.679,-3.446c-3.115,-1.207 -5.801,-3.114 -8.059,-5.723c-2.258,-2.608 -3.387,-6.132 -3.387,-10.57c-0,-3.737 1.031,-7.144 3.095,-10.22c2.063,-3.075 5.1,-5.509 9.11,-7.299c4.01,-1.791 8.779,-2.687 14.307,-2.687c8.176,0 14.619,2.025 19.33,6.074c4.011,3.447 6.569,7.855 7.673,13.222c0.146,0.707 -0.033,1.443 -0.489,2.003c-0.456,0.56 -1.14,0.886 -1.863,0.886c-3.797,0.007 -10.484,0.007 -13.752,0.007c-1.034,-0.001 -1.953,-0.661 -2.283,-1.642c-0.487,-1.503 -1.355,-2.746 -2.601,-3.731c-1.674,-1.324 -3.873,-1.986 -6.599,-1.986c-2.335,0 -4.126,0.448 -5.372,1.344c-1.246,0.895 -1.869,2.121 -1.869,3.679c0,1.868 0.993,3.27 2.978,4.204c1.986,0.935 5.081,1.869 9.286,2.803c4.827,1.246 8.759,2.473 11.796,3.679c3.037,1.207 5.704,3.154 8.001,5.84c2.297,2.687 3.484,6.288 3.562,10.804c-0,3.815 -1.071,7.222 -3.212,10.22c-2.141,2.997 -5.217,5.353 -9.227,7.066c-4.01,1.713 -8.662,2.569 -13.957,2.569Z" style="fill:#c7c7cc;fill-rule:nonzero;"/><path d="M610.592,95.79c0.638,-0 1.251,0.253 1.703,0.705c0.451,0.452 0.705,1.064 0.705,1.703c-0,3.221 -0,8.898 -0,12.119c-0,1.33 -1.078,2.408 -2.408,2.408l-7.753,-0c-7.242,-0 -12.887,-1.771 -16.936,-5.314c-4.049,-3.543 -6.073,-9.324 -6.073,-17.344l-0,-23.521c-0,-0.639 -0.254,-1.251 -0.706,-1.703c-0.451,-0.452 -1.064,-0.705 -1.702,-0.705l-3.126,-0c-1.33,-0 -2.408,-1.079 -2.408,-2.409c-0,-3.146 -0,-8.622 -0,-11.768c-0,-1.33 1.078,-2.408 2.408,-2.408c0.99,-0 2.135,-0 3.126,-0c1.33,-0 2.408,-1.079 2.408,-2.409c-0,-1.882 -0,-4.458 -0,-6.176c-0,-1.086 0.726,-2.037 1.773,-2.323c3.412,-0.933 10.927,-2.988 15.156,-4.145c0.724,-0.198 1.499,-0.046 2.096,0.409c0.597,0.456 0.947,1.164 0.947,1.914c0,3.037 0,7.564 0,10.321c-0,0.639 0.254,1.252 0.705,1.703c0.452,0.452 1.065,0.706 1.703,0.706c2.353,-0 5.913,-0 8.265,-0c1.33,-0 2.408,1.078 2.408,2.408c0,3.146 0,8.622 0,11.768c0,1.33 -1.078,2.409 -2.408,2.409c-2.352,-0 -5.912,-0 -8.265,-0c-1.33,-0 -2.408,1.078 -2.408,2.408l0,23.754c0,1.947 0.467,3.348 1.402,4.205c0.934,0.856 2.491,1.285 4.671,1.285l4.717,-0Z" style="fill:#c7c7cc;fill-rule:nonzero;"/></g><g><path d="M59.871,100.748l-31.773,-0c-2.128,-0 -3.853,-1.725 -3.853,-3.853c-0,-9.531 -0,-33.441 -0,-33.441c-0,0 34.204,-22.299 43.12,-28.112c1.279,-0.834 2.93,-0.834 4.209,-0c8.916,5.813 43.12,28.112 43.12,28.112l0,33.441c0,2.128 -1.725,3.853 -3.853,3.853l-31.7,-0l-0,24.565c-0,1.022 -0.406,2.002 -1.129,2.725c-0.722,0.723 -1.702,1.129 -2.724,1.129c-3.359,-0 -8.205,-0 -11.564,-0c-1.021,-0 -2.002,-0.406 -2.724,-1.129c-0.723,-0.723 -1.129,-1.703 -1.129,-2.725l0,-24.565Zm9.635,-43.202c7.988,-0 14.473,6.485 14.473,14.472c-0,7.988 -6.485,14.473 -14.473,14.473c-7.988,-0 -14.473,-6.485 -14.473,-14.473c0,-7.987 6.485,-14.472 14.473,-14.472Z" style="fill:#c7c7cc;"/><path d="M4.643,47.294c-0,-0.011 -0,-0.02 0,-0.03c0.01,-1.292 0.667,-2.493 1.749,-3.198c13.606,-8.871 51.645,-33.67 61.012,-39.777c1.279,-0.834 2.929,-0.834 4.208,0c9.365,6.106 47.389,30.895 61.003,39.771c1.083,0.706 1.74,1.908 1.749,3.201c0.009,1.293 -0.632,2.504 -1.705,3.225c-6.02,4.044 -15.522,10.426 -15.522,10.426c-0,0 -36.311,-23.709 -45.524,-29.724c-1.279,-0.835 -2.931,-0.836 -4.211,-0.001c-9.223,6.012 -45.6,29.725 -45.6,29.725l-14.1,-9.507l0,19.381c1.384,2.395 3.376,6.084 4.53,9.306c0.212,0.59 0.123,1.246 -0.238,1.759c-0.361,0.512 -0.949,0.817 -1.576,0.817c-2.454,0 -6.037,0 -8.491,0c-0.627,0 -1.215,-0.305 -1.576,-0.817c-0.361,-0.513 -0.45,-1.169 -0.238,-1.759c1.154,-3.222 3.146,-6.911 4.53,-9.306l-0,-23.492l-0,-0Z" style="fill:#c7c7cc;"/></g></g></svg>