<?xml version="1.0" encoding="UTF-8" standalone="no"?><!DOCTYPE svg PUBLIC "-//W3C//DTD SVG 1.1//EN" "http://www.w3.org/Graphics/SVG/1.1/DTD/svg11.dtd"><svg width="100%" height="100%" viewBox="0 0 2275 1875" version="1.1" xmlns="http://www.w3.org/2000/svg" xmlns:xlink="http://www.w3.org/1999/xlink" xml:space="preserve" xmlns:serif="http://www.serif.com/" style="fill-rule:evenodd;clip-rule:evenodd;stroke-linejoin:round;stroke-miterlimit:2;"><g id="FullColour"><g><path d="M87.517,1462.42c3.622,-0.991 7.498,-0.235 10.482,2.043c2.984,2.278 4.736,5.817 4.736,9.571l-0,229.495c-0,24.526 6.034,43.408 18.103,56.645c12.069,13.237 29.783,19.855 53.142,19.855c23.359,0 41.267,-6.618 53.725,-19.855c12.459,-13.237 18.688,-32.119 18.688,-56.645l-0,-208.774c-0,-5.427 3.63,-10.183 8.865,-11.614c17.06,-4.666 54.637,-14.941 75.777,-20.721c3.622,-0.991 7.498,-0.235 10.482,2.043c2.984,2.278 4.736,5.817 4.736,9.572l-0,228.91c-0,36.595 -7.787,67.546 -23.36,92.852c-15.572,25.305 -36.498,44.382 -62.777,57.229c-26.279,12.848 -55.575,19.271 -87.888,19.271c-32.314,0 -61.22,-6.326 -86.721,-18.979c-25.5,-12.653 -45.647,-31.729 -60.441,-57.229c-14.794,-25.501 -22.191,-56.549 -22.191,-93.144l-0,-208.19c-0,-5.427 3.63,-10.183 8.865,-11.614c17.06,-4.666 54.637,-14.941 75.777,-20.721Z" style="fill:#1a83fe;fill-rule:nonzero;"/><path d="M614.881,1538.85c38.153,0 68.618,12.361 91.393,37.083c22.775,24.721 34.162,58.689 34.162,101.903l0,158.566c0,5.42 -3.621,10.173 -8.848,11.61c-16.948,4.662 -54.171,14.9 -75.193,20.682c-3.623,0.997 -7.504,0.245 -10.492,-2.033c-2.989,-2.277 -4.743,-5.819 -4.743,-9.577l0,-165.816c0,-21.802 -5.645,-38.737 -16.935,-50.806c-11.29,-12.069 -26.474,-18.103 -45.55,-18.103c-19.077,-0 -34.26,6.034 -45.55,18.103c-11.29,12.069 -16.935,29.004 -16.936,50.806l0,145.12c0.001,5.427 -3.63,10.183 -8.865,11.615c-17.06,4.665 -54.637,14.94 -75.777,20.72c-3.622,0.991 -7.498,0.235 -10.482,-2.043c-2.984,-2.278 -4.735,-5.817 -4.735,-9.571c-0,-54.724 -0,-235.373 -0,-278.258c-0,-5.427 3.63,-10.184 8.865,-11.615c17.06,-4.665 54.637,-14.94 75.777,-20.721c3.622,-0.99 7.498,-0.235 10.482,2.043c2.984,2.278 4.735,5.818 4.735,9.572c0,2.61 0,5.343 0,8.031c0.001,2.918 1.757,5.549 4.451,6.669c2.695,1.12 5.798,0.51 7.868,-1.547c8.039,-7.907 17.58,-14.512 28.56,-19.877c17.13,-8.371 36.401,-12.556 57.813,-12.556Z" style="fill:#1a83fe;fill-rule:nonzero;"/><path d="M860.151,1508.48c-17.519,-0 -31.826,-5.159 -42.922,-15.476c-11.096,-10.317 -16.643,-23.067 -16.643,-38.25c-0,-15.573 5.547,-28.518 16.643,-38.835c11.096,-10.317 25.403,-15.475 42.922,-15.475c17.13,0 31.243,5.158 42.338,15.475c11.096,10.317 16.644,23.262 16.644,38.835c-0,15.183 -5.548,27.933 -16.644,38.25c-11.095,10.317 -25.208,15.476 -42.338,15.476Zm34.421,38.031c3.621,-0.99 7.497,-0.235 10.482,2.043c2.984,2.278 4.735,5.818 4.735,9.572c0,54.723 0,235.373 0,278.258c0,5.427 -3.63,10.183 -8.865,11.615c-17.061,4.665 -54.637,14.94 -75.777,20.72c-3.622,0.991 -7.498,0.235 -10.482,-2.043c-2.985,-2.278 -4.736,-5.817 -4.736,-9.571c0,-54.724 0,-235.373 0,-278.258c0,-5.427 3.631,-10.184 8.866,-11.615c17.06,-4.665 54.636,-14.94 75.777,-20.721Z" style="fill:#1a83fe;fill-rule:nonzero;"/><path d="M1348.94,1836.38c-0,5.427 -3.63,10.183 -8.865,11.615c-19.071,5.214 -63.776,17.439 -82.505,22.56c-5.057,1.383 -10.427,-0.665 -13.279,-5.063c-22.054,-34.007 -114.242,-176.156 -148.942,-229.662c-1.741,-2.685 -5.042,-3.905 -8.111,-2.997c-3.069,0.908 -5.175,3.728 -5.175,6.928c0,50.319 0,163.606 0,196.619c0,5.427 -3.63,10.183 -8.865,11.615c-17.061,4.665 -54.637,14.94 -75.778,20.72c-3.621,0.991 -7.497,0.235 -10.481,-2.043c-2.985,-2.278 -4.736,-5.817 -4.736,-9.571c0,-65.066 0,-311.551 0,-362.351c0,-5.427 3.631,-10.183 8.865,-11.614c19.09,-5.22 63.865,-17.464 82.561,-22.576c5.03,-1.375 10.373,0.643 13.237,5c22.086,33.591 114.279,173.815 148.953,226.553c1.753,2.667 5.05,3.867 8.108,2.952c3.058,-0.915 5.153,-3.729 5.153,-6.921c0,-49.529 0,-160.725 0,-193.394c0,-5.427 3.631,-10.183 8.865,-11.614c17.061,-4.666 54.637,-14.941 75.778,-20.721c3.621,-0.991 7.497,-0.235 10.482,2.043c2.984,2.278 4.735,5.817 4.735,9.572c-0,65.066 -0,311.55 -0,362.35Z" style="fill:#303032;fill-rule:nonzero;"/><path d="M1728.52,1700.02c0,5.865 -0.23,11.883 -0.69,18.055c-0.47,6.28 -5.702,11.136 -12,11.136c-39.297,0.007 -172.814,0.007 -207.023,0.007c-2.112,0 -4.119,0.925 -5.492,2.53c-1.373,1.606 -1.974,3.732 -1.645,5.819c2.61,16.196 8.809,28.892 18.663,38.077c11.485,10.707 25.597,16.06 42.338,16.06c22.445,-0 38.73,-8.53 48.854,-25.59c2.155,-3.642 6.072,-5.876 10.304,-5.876c16.851,-0.069 59.267,-0.069 82.776,-0.069c3.939,-0 7.628,1.925 9.88,5.156c2.252,3.231 2.782,7.359 1.419,11.054c-5.802,15.025 -13.93,28.903 -24.466,41.604c-14.21,17.13 -32.022,30.561 -53.434,40.294c-21.412,9.733 -45.355,14.599 -71.829,14.599c-31.924,0 -60.344,-6.813 -85.26,-20.439c-24.917,-13.626 -44.383,-33.092 -58.398,-58.397c-14.015,-25.306 -21.023,-54.894 -21.023,-88.765c-0,-33.87 6.91,-63.458 20.731,-88.764c13.821,-25.306 33.189,-44.771 58.106,-58.398c24.916,-13.626 53.531,-20.439 85.844,-20.439c31.535,0 59.566,6.619 84.093,19.856c24.526,13.236 43.7,32.118 57.521,56.645c13.821,24.527 20.731,53.142 20.731,85.845Zm-109.807,-26.279c2.071,0 4.042,-0.888 5.414,-2.439c1.372,-1.551 2.012,-3.617 1.758,-5.672c-1.622,-13.374 -7.306,-24.297 -17.08,-32.768c-11.679,-10.122 -26.279,-15.183 -43.798,-15.183c-16.741,0 -30.853,4.866 -42.338,14.599c-9.482,8.036 -15.979,18.858 -19.49,32.466c-0.547,2.138 -0.076,4.41 1.278,6.153c1.353,1.744 3.437,2.764 5.644,2.764c23.314,0.08 86.661,0.08 108.612,0.08Z" style="fill:#303032;fill-rule:nonzero;"/><path d="M1906.82,1872.88c-28.42,0 -53.726,-4.866 -75.917,-14.599c-22.191,-9.733 -39.71,-23.067 -52.558,-40.002c-9.86,-12.998 -16.395,-27.2 -19.605,-42.606c-0.685,-3.494 0.229,-7.112 2.492,-9.861c2.263,-2.75 5.638,-4.343 9.199,-4.343c20.241,-0.128 57.652,-0.128 75.302,-0.128c5.195,0.001 9.805,3.334 11.433,8.268c2.402,7.581 7.088,13.971 14.032,19.179c9.343,7.008 20.828,10.511 34.454,10.511c12.458,0 22.094,-2.433 28.907,-7.299c6.813,-4.867 10.219,-11.193 10.219,-18.979c0,-9.344 -4.866,-16.254 -14.599,-20.732c-9.733,-4.477 -25.5,-9.441 -47.302,-14.891c-23.359,-5.45 -42.825,-11.193 -58.398,-17.227c-15.572,-6.035 -29.004,-15.573 -40.294,-28.615c-11.29,-13.042 -16.935,-30.659 -16.935,-52.85c-0,-18.687 5.158,-35.72 15.475,-51.098c10.317,-15.378 25.5,-27.544 45.55,-36.498c20.05,-8.955 43.896,-13.432 71.537,-13.432c40.879,0 73.095,10.123 96.648,30.367c20.056,17.238 32.843,39.275 38.362,66.11c0.734,3.536 -0.164,7.215 -2.444,10.017c-2.28,2.801 -5.7,4.427 -9.312,4.427c-18.986,0.035 -52.422,0.035 -68.761,0.035c-5.172,-0.001 -9.767,-3.304 -11.414,-8.208c-2.436,-7.515 -6.777,-13.732 -13.004,-18.655c-8.37,-6.619 -19.368,-9.928 -32.995,-9.928c-11.679,0 -20.633,2.239 -26.862,6.716c-6.229,4.477 -9.344,10.609 -9.344,18.395c-0,9.344 4.964,16.352 14.891,21.023c9.928,4.672 25.403,9.344 46.426,14.016c24.138,6.229 43.799,12.361 58.982,18.395c15.183,6.034 28.517,15.767 40.002,29.199c11.485,13.431 17.422,31.437 17.812,54.018c-0,19.076 -5.354,36.109 -16.06,51.097c-10.706,14.989 -26.084,26.766 -46.134,35.331c-20.05,8.565 -43.311,12.847 -69.785,12.847Z" style="fill:#303032;fill-rule:nonzero;"/><path d="M2262.86,1783.53c3.193,0 6.256,1.269 8.514,3.527c2.258,2.258 3.527,5.321 3.527,8.514c0,16.104 0,44.49 0,60.594c0,6.651 -5.391,12.042 -12.041,12.042l-38.765,-0c-36.206,-0 -64.432,-8.857 -84.676,-26.571c-20.245,-17.714 -30.367,-46.621 -30.367,-86.721l-0,-117.601c-0,-3.194 -1.269,-6.256 -3.527,-8.515c-2.258,-2.258 -5.321,-3.526 -8.514,-3.526l-15.628,-0c-6.65,-0 -12.041,-5.391 -12.041,-12.041c-0,-15.73 -0,-43.113 -0,-58.843c-0,-6.65 5.391,-12.041 12.041,-12.041c4.952,0 10.676,0 15.628,0c6.65,0 12.041,-5.391 12.041,-12.041c-0,-9.41 -0,-22.291 -0,-30.883c-0,-5.427 3.63,-10.183 8.865,-11.615c17.061,-4.665 54.637,-14.94 75.778,-20.721c3.621,-0.99 7.497,-0.234 10.481,2.044c2.985,2.277 4.736,5.817 4.736,9.571c-0,15.185 -0,37.817 -0,51.604c-0,3.193 1.268,6.256 3.527,8.514c2.258,2.259 5.32,3.527 8.514,3.527c11.761,0 29.561,0 41.323,0c6.65,0 12.041,5.391 12.041,12.041c0,15.73 0,43.113 0,58.843c0,6.65 -5.391,12.041 -12.041,12.041c-11.762,-0 -29.562,-0 -41.323,-0c-6.65,-0 -12.041,5.391 -12.041,12.041l-0,118.769c-0,9.733 2.336,16.741 7.007,21.023c4.672,4.283 12.459,6.424 23.359,6.424l23.582,0Z" style="fill:#303032;fill-rule:nonzero;"/></g><g><path d="M1065.78,972.951l-317.728,0c-21.28,0 -38.531,-17.251 -38.531,-38.532c-0,-95.301 -0,-334.402 -0,-334.402c-0,-0 342.039,-222.992 431.196,-281.117c12.79,-8.339 29.297,-8.339 42.087,-0c89.158,58.125 431.197,281.117 431.197,281.117l0,334.402c0,21.281 -17.251,38.532 -38.532,38.532l-316.994,0l-0,245.653c-0,10.219 -4.06,20.02 -11.286,27.246c-7.226,7.226 -17.027,11.286 -27.246,11.286c-33.586,0 -82.046,0 -115.631,0c-10.22,0 -20.02,-4.06 -27.247,-11.286c-7.226,-7.226 -11.285,-17.027 -11.285,-27.246l-0,-245.653Zm96.347,-432.017c79.876,-0 144.725,64.849 144.725,144.724c-0,79.876 -64.849,144.725 -144.725,144.725c-79.876,0 -144.725,-64.849 -144.725,-144.725c0,-79.875 64.849,-144.724 144.725,-144.724Z" style="fill:#303032;"/><path d="M513.506,438.414c-0,-0.101 0,-0.2 0.001,-0.3c0.1,-12.917 6.666,-24.925 17.487,-31.979c136.056,-88.701 516.443,-336.693 610.112,-397.761c12.79,-8.338 29.298,-8.338 42.088,0c93.648,61.054 473.882,308.946 610.019,397.7c10.831,7.061 17.398,19.084 17.487,32.014c0.089,12.929 -6.313,25.041 -17.046,32.25c-60.2,40.435 -155.224,104.261 -155.224,104.261c-0,0 -363.107,-237.086 -455.231,-297.238c-12.792,-8.352 -29.31,-8.358 -42.108,-0.016c-92.235,60.127 -455.993,297.254 -455.993,297.254l-141.001,-95.068l-0,193.802c13.837,23.953 33.76,60.839 45.3,93.063c2.114,5.902 1.224,12.462 -2.384,17.587c-3.609,5.126 -9.485,8.175 -15.753,8.175c-24.545,0 -60.373,0 -84.917,0c-6.268,0 -12.145,-3.049 -15.753,-8.175c-3.609,-5.125 -4.498,-11.685 -2.385,-17.587c11.541,-32.224 31.463,-69.11 45.301,-93.063l-0,-234.919l-0,-0Z" style="fill:#1a83fe;"/></g></g></svg>