<?xml version="1.0" encoding="UTF-8" standalone="no"?><!DOCTYPE svg PUBLIC "-//W3C//DTD SVG 1.1//EN" "http://www.w3.org/Graphics/SVG/1.1/DTD/svg11.dtd"><svg width="100%" height="100%" viewBox="0 0 459 375" version="1.1" xmlns="http://www.w3.org/2000/svg" xmlns:xlink="http://www.w3.org/1999/xlink" xml:space="preserve" xmlns:serif="http://www.serif.com/" style="fill-rule:evenodd;clip-rule:evenodd;stroke-linejoin:round;stroke-miterlimit:2;"><g id="Watermark"><g><path d="M16.929,292.906c0.724,-0.198 1.499,-0.047 2.096,0.408c0.597,0.456 0.947,1.164 0.947,1.915l0,45.9c0,4.905 1.207,8.682 3.621,11.329c2.414,2.647 5.957,3.971 10.629,3.971c4.672,0 8.254,-1.324 10.745,-3.971c2.492,-2.647 3.738,-6.424 3.738,-11.329l-0,-41.756c-0,-1.085 0.726,-2.037 1.773,-2.323c3.412,-0.933 10.927,-2.988 15.156,-4.144c0.724,-0.198 1.499,-0.047 2.096,0.408c0.597,0.456 0.947,1.164 0.947,1.915l0,45.783c0,7.319 -1.557,13.509 -4.672,18.571c-3.114,5.061 -7.3,8.876 -12.555,11.446c-5.256,2.569 -11.116,3.854 -17.579,3.854c-6.462,0 -12.244,-1.265 -17.344,-3.796c-5.1,-2.53 -9.13,-6.346 -12.089,-11.446c-2.959,-5.1 -4.438,-11.31 -4.438,-18.629l0,-41.639c0,-1.085 0.726,-2.037 1.773,-2.323c3.412,-0.933 10.928,-2.988 15.156,-4.144Z" style="fill:#c7c7cc;fill-rule:nonzero;"/><path d="M122.404,308.192c7.631,-0 13.724,2.472 18.279,7.416c4.555,4.945 6.833,11.738 6.833,20.381l-0,31.714c-0,1.084 -0.724,2.035 -1.77,2.322c-3.389,0.933 -10.834,2.98 -15.039,4.137c-0.724,0.199 -1.501,0.049 -2.098,-0.407c-0.598,-0.455 -0.949,-1.164 -0.949,-1.915l0,-33.164c0,-4.361 -1.129,-7.748 -3.387,-10.162c-2.258,-2.413 -5.295,-3.62 -9.11,-3.62c-3.816,-0 -6.852,1.207 -9.11,3.62c-2.259,2.414 -3.388,5.801 -3.388,10.162l0,29.024c0,1.086 -0.726,2.037 -1.773,2.323c-3.412,0.934 -10.927,2.989 -15.156,4.145c-0.724,0.198 -1.499,0.047 -2.096,-0.409c-0.597,-0.455 -0.947,-1.163 -0.947,-1.914c-0,-10.945 -0,-47.076 -0,-55.653c-0,-1.086 0.726,-2.037 1.773,-2.323c3.412,-0.933 10.928,-2.988 15.156,-4.144c0.724,-0.198 1.499,-0.047 2.096,0.408c0.597,0.456 0.947,1.164 0.947,1.915c0,0.522 0,1.068 0,1.606c0.001,0.583 0.352,1.11 0.891,1.334c0.538,0.224 1.159,0.102 1.573,-0.31c1.608,-1.581 3.516,-2.902 5.712,-3.975c3.426,-1.674 7.281,-2.511 11.563,-2.511Z" style="fill:#c7c7cc;fill-rule:nonzero;"/><path d="M171.459,302.118c-3.503,0 -6.365,-1.032 -8.584,-3.095c-2.219,-2.064 -3.329,-4.614 -3.329,-7.65c0,-3.115 1.11,-5.704 3.329,-7.767c2.219,-2.064 5.081,-3.096 8.584,-3.096c3.427,0 6.249,1.032 8.468,3.096c2.219,2.063 3.329,4.652 3.329,7.767c0,3.036 -1.11,5.586 -3.329,7.65c-2.219,2.063 -5.041,3.095 -8.468,3.095Zm6.885,7.607c0.724,-0.198 1.499,-0.047 2.096,0.408c0.597,0.456 0.947,1.164 0.947,1.915c0,10.945 0,47.075 0,55.652c0,1.086 -0.726,2.037 -1.773,2.323c-3.412,0.934 -10.927,2.989 -15.156,4.145c-0.724,0.198 -1.499,0.047 -2.096,-0.409c-0.597,-0.455 -0.947,-1.163 -0.947,-1.914c-0,-10.945 -0,-47.076 -0,-55.653c-0,-1.086 0.726,-2.037 1.773,-2.323c3.412,-0.933 10.928,-2.988 15.156,-4.144Z" style="fill:#c7c7cc;fill-rule:nonzero;"/><path d="M269.219,367.7c0,1.086 -0.726,2.037 -1.773,2.323c-3.814,1.043 -12.755,3.488 -16.501,4.513c-1.011,0.276 -2.085,-0.133 -2.656,-1.013c-4.411,-6.802 -22.849,-35.232 -29.789,-45.933c-0.348,-0.538 -1.008,-0.781 -1.622,-0.6c-0.614,0.182 -1.035,0.746 -1.035,1.386c-0,10.064 -0,32.722 -0,39.324c-0,1.086 -0.726,2.037 -1.773,2.323c-3.413,0.934 -10.928,2.989 -15.156,4.145c-0.725,0.198 -1.5,0.047 -2.097,-0.409c-0.597,-0.455 -0.947,-1.163 -0.947,-1.914c0,-13.014 0,-62.312 0,-72.472c0,-1.085 0.726,-2.037 1.773,-2.323c3.818,-1.044 12.774,-3.493 16.513,-4.515c1.006,-0.275 2.074,0.128 2.647,1c4.418,6.718 22.857,34.764 29.792,45.311c0.35,0.534 1.01,0.774 1.621,0.591c0.612,-0.183 1.031,-0.746 1.031,-1.384c-0,-9.906 -0,-32.146 -0,-38.68c-0,-1.085 0.726,-2.037 1.773,-2.323c3.412,-0.933 10.928,-2.988 15.156,-4.144c0.724,-0.198 1.499,-0.047 2.096,0.408c0.597,0.456 0.947,1.164 0.947,1.915c0,13.013 0,62.311 0,72.471Z" style="fill:#c7c7cc;fill-rule:nonzero;"/><path d="M345.138,340.428c0,1.173 -0.046,2.377 -0.138,3.611c-0.094,1.256 -1.141,2.227 -2.4,2.227c-7.86,0.002 -34.564,0.002 -41.406,0.002c-0.422,-0 -0.823,0.185 -1.098,0.506c-0.275,0.321 -0.395,0.746 -0.329,1.163c0.522,3.24 1.762,5.779 3.733,7.616c2.297,2.141 5.119,3.212 8.467,3.212c4.49,0 7.747,-1.706 9.772,-5.118c0.431,-0.728 1.214,-1.175 2.06,-1.175c3.371,-0.014 11.854,-0.014 16.556,-0.014c0.788,-0 1.526,0.385 1.976,1.031c0.45,0.646 0.556,1.472 0.284,2.211c-1.161,3.005 -2.786,5.781 -4.894,8.321c-2.842,3.426 -6.404,6.112 -10.687,8.059c-4.282,1.947 -9.071,2.92 -14.366,2.92c-6.385,-0 -12.069,-1.363 -17.052,-4.088c-4.984,-2.725 -8.877,-6.618 -11.68,-11.68c-2.803,-5.061 -4.205,-10.979 -4.205,-17.753c0,-6.774 1.382,-12.692 4.147,-17.753c2.764,-5.062 6.638,-8.955 11.621,-11.68c4.983,-2.725 10.706,-4.088 17.169,-4.088c6.307,-0 11.914,1.324 16.819,3.971c4.906,2.648 8.741,6.424 11.505,11.329c2.764,4.906 4.146,10.629 4.146,17.17Zm-21.962,-5.256c0.414,-0 0.809,-0.178 1.083,-0.488c0.274,-0.31 0.402,-0.723 0.352,-1.134c-0.325,-2.675 -1.462,-4.86 -3.417,-6.554c-2.335,-2.024 -5.255,-3.037 -8.759,-3.037c-3.349,0 -6.171,0.974 -8.468,2.92c-1.897,1.607 -3.196,3.772 -3.898,6.493c-0.11,0.428 -0.015,0.882 0.255,1.231c0.271,0.349 0.688,0.553 1.129,0.553c4.663,0.016 17.333,0.016 21.723,0.016Z" style="fill:#c7c7cc;fill-rule:nonzero;"/><path d="M380.798,375c-5.684,-0 -10.746,-0.973 -15.184,-2.92c-4.438,-1.947 -7.942,-4.613 -10.512,-8.001c-1.972,-2.599 -3.279,-5.44 -3.921,-8.521c-0.137,-0.699 0.046,-1.422 0.498,-1.972c0.453,-0.55 1.128,-0.869 1.84,-0.869c4.048,-0.025 11.531,-0.025 15.061,-0.025c1.039,-0 1.961,0.666 2.287,1.653c0.48,1.517 1.417,2.795 2.806,3.836c1.869,1.402 4.166,2.102 6.891,2.102c2.492,0 4.419,-0.486 5.782,-1.46c1.362,-0.973 2.044,-2.238 2.044,-3.795c-0,-1.869 -0.974,-3.251 -2.92,-4.147c-1.947,-0.895 -5.101,-1.888 -9.461,-2.978c-4.672,-1.09 -8.565,-2.239 -11.68,-3.446c-3.114,-1.207 -5.801,-3.114 -8.059,-5.723c-2.258,-2.608 -3.387,-6.132 -3.387,-10.57c-0,-3.738 1.032,-7.144 3.095,-10.22c2.064,-3.075 5.1,-5.509 9.11,-7.3c4.01,-1.791 8.78,-2.686 14.308,-2.686c8.176,-0 14.619,2.024 19.33,6.073c4.011,3.448 6.569,7.856 7.673,13.223c0.146,0.707 -0.033,1.443 -0.489,2.003c-0.456,0.56 -1.14,0.886 -1.863,0.886c-3.797,0.007 -10.484,0.007 -13.752,0.007c-1.035,-0.001 -1.953,-0.661 -2.283,-1.642c-0.487,-1.503 -1.355,-2.746 -2.601,-3.731c-1.674,-1.324 -3.874,-1.986 -6.599,-1.986c-2.336,0 -4.127,0.448 -5.373,1.343c-1.245,0.896 -1.868,2.122 -1.868,3.68c-0,1.868 0.992,3.27 2.978,4.204c1.986,0.935 5.081,1.869 9.285,2.803c4.828,1.246 8.76,2.473 11.797,3.68c3.037,1.207 5.704,3.153 8.001,5.84c2.297,2.686 3.484,6.287 3.562,10.803c0,3.816 -1.071,7.222 -3.212,10.22c-2.141,2.998 -5.217,5.353 -9.227,7.066c-4.01,1.713 -8.662,2.57 -13.957,2.57Z" style="fill:#c7c7cc;fill-rule:nonzero;"/><path d="M452.008,357.13c0.639,-0 1.252,0.254 1.703,0.705c0.452,0.452 0.706,1.064 0.706,1.703c-0,3.221 -0,8.898 -0,12.119c-0,1.33 -1.079,2.409 -2.409,2.409l-7.753,-0c-7.241,-0 -12.886,-1.772 -16.935,-5.315c-4.049,-3.543 -6.074,-9.324 -6.074,-17.344l0,-23.521c0,-0.639 -0.254,-1.251 -0.705,-1.703c-0.452,-0.452 -1.065,-0.705 -1.703,-0.705l-3.126,-0c-1.33,-0 -2.408,-1.079 -2.408,-2.409c-0,-3.146 -0,-8.622 -0,-11.768c-0,-1.33 1.078,-2.409 2.408,-2.409c0.991,0 2.135,0 3.126,0c1.33,0 2.408,-1.078 2.408,-2.408c0,-1.882 0,-4.458 0,-6.177c0,-1.085 0.726,-2.036 1.773,-2.323c3.412,-0.933 10.928,-2.988 15.156,-4.144c0.724,-0.198 1.499,-0.047 2.096,0.409c0.597,0.455 0.947,1.163 0.947,1.914c0,3.037 0,7.564 0,10.321c0,0.639 0.254,1.251 0.706,1.703c0.452,0.452 1.064,0.705 1.703,0.705c2.352,0 5.912,0 8.265,0c1.33,0 2.408,1.079 2.408,2.409c-0,3.146 -0,8.622 -0,11.768c-0,1.33 -1.078,2.409 -2.408,2.409c-2.353,-0 -5.913,-0 -8.265,-0c-1.33,-0 -2.409,1.078 -2.409,2.408l0,23.754c0,1.947 0.468,3.349 1.402,4.205c0.934,0.857 2.492,1.285 4.672,1.285l4.716,-0Z" style="fill:#c7c7cc;fill-rule:nonzero;"/></g><g><path d="M212.587,195.01l-63.547,-0c-4.256,-0 -7.707,-3.45 -7.707,-7.707c0,-19.06 0,-66.882 0,-66.882c0,0 68.41,-44.599 86.242,-56.225c2.558,-1.667 5.859,-1.667 8.417,0c17.832,11.626 86.242,56.225 86.242,56.225l-0,66.882c-0,4.257 -3.451,7.707 -7.707,7.707l-63.4,-0l-0,49.132c-0,2.044 -0.812,4.004 -2.258,5.449c-1.445,1.445 -3.405,2.257 -5.449,2.257c-6.717,0 -16.409,0 -23.127,0c-2.044,0 -4.004,-0.812 -5.449,-2.257c-1.445,-1.445 -2.257,-3.405 -2.257,-5.449l-0,-49.132Zm19.27,-86.406c15.975,0 28.945,12.97 28.945,28.946c0,15.976 -12.97,28.946 -28.945,28.946c-15.976,-0 -28.946,-12.97 -28.946,-28.946c0,-15.976 12.97,-28.946 28.946,-28.946Z" style="fill:#c7c7cc;"/><path d="M102.129,88.1c-0,-0.02 -0,-0.04 -0,-0.06c0.02,-2.583 1.333,-4.985 3.497,-6.396c27.212,-17.741 103.291,-67.34 122.026,-79.554c2.558,-1.668 5.859,-1.668 8.418,-0c18.73,12.211 94.778,61.791 122.006,79.542c2.167,1.412 3.48,3.817 3.498,6.403c0.018,2.586 -1.263,5.008 -3.41,6.45c-12.04,8.087 -31.045,20.853 -31.045,20.853c-0,-0 -72.623,-47.419 -91.048,-59.449c-2.559,-1.671 -5.863,-1.672 -8.422,-0.004c-18.448,12.026 -91.201,59.453 -91.201,59.453l-28.201,-19.015l-0,38.762c2.768,4.791 6.752,12.168 9.06,18.613c0.423,1.18 0.245,2.492 -0.477,3.518c-0.721,1.025 -1.897,1.634 -3.15,1.634c-4.909,0 -12.075,0 -16.984,0c-1.254,0 -2.429,-0.609 -3.151,-1.634c-0.721,-1.026 -0.899,-2.338 -0.477,-3.518c2.308,-6.445 6.293,-13.822 9.061,-18.613l-0,-46.985l-0,-0Z" style="fill:#c7c7cc;"/></g></g></svg>