<?xml version="1.0" encoding="UTF-8" standalone="no"?><!DOCTYPE svg PUBLIC "-//W3C//DTD SVG 1.1//EN" "http://www.w3.org/Graphics/SVG/1.1/DTD/svg11.dtd"><svg width="100%" height="100%" viewBox="0 0 1217 1000" version="1.1" xmlns="http://www.w3.org/2000/svg" xmlns:xlink="http://www.w3.org/1999/xlink" xml:space="preserve" xmlns:serif="http://www.serif.com/" style="fill-rule:evenodd;clip-rule:evenodd;stroke-linejoin:round;stroke-miterlimit:2;"><g id="InvertedColour"><g><path d="M48.407,777.426c1.934,-0.529 4.003,-0.126 5.596,1.09c1.594,1.216 2.529,3.106 2.529,5.111l-0,122.524c-0,13.094 3.221,23.175 9.665,30.242c6.443,7.067 15.9,10.601 28.372,10.601c12.471,-0 22.032,-3.534 28.683,-10.601c6.651,-7.067 9.977,-17.148 9.977,-30.242l-0,-111.462c-0,-2.897 1.938,-5.437 4.733,-6.201c9.108,-2.49 29.17,-7.976 40.457,-11.062c1.933,-0.529 4.002,-0.126 5.596,1.09c1.593,1.216 2.528,3.106 2.528,5.111l-0,122.212c-0,19.538 -4.157,36.062 -12.471,49.573c-8.314,13.51 -19.486,23.695 -33.516,30.554c-14.03,6.859 -29.671,10.288 -46.923,10.288c-17.252,0 -32.685,-3.377 -46.299,-10.132c-13.614,-6.756 -24.37,-16.94 -32.269,-30.555c-7.898,-13.614 -11.847,-30.19 -11.847,-49.728l-0,-111.15c-0,-2.897 1.938,-5.437 4.733,-6.201c9.108,-2.49 29.17,-7.976 40.456,-11.062Z" style="fill:#1a83fe;fill-rule:nonzero;"/><path d="M329.961,818.229c20.369,0 36.634,6.6 48.793,19.798c12.159,13.199 18.239,31.334 18.239,54.405l0,84.657c0,2.894 -1.934,5.431 -4.724,6.198c-9.048,2.489 -28.921,7.955 -40.145,11.042c-1.934,0.532 -4.006,0.131 -5.601,-1.085c-1.596,-1.216 -2.532,-3.107 -2.532,-5.113l-0,-88.528c-0,-11.639 -3.014,-20.681 -9.042,-27.124c-6.027,-6.444 -14.134,-9.665 -24.318,-9.665c-10.185,-0 -18.291,3.221 -24.319,9.665c-6.028,6.443 -9.042,15.485 -9.042,27.124l0,77.478c0,2.897 -1.938,5.437 -4.733,6.201c-9.108,2.491 -29.17,7.976 -40.456,11.063c-1.934,0.528 -4.003,0.125 -5.596,-1.091c-1.594,-1.216 -2.529,-3.106 -2.529,-5.11c0,-29.217 0,-125.663 0,-148.559c0,-2.897 1.939,-5.437 4.733,-6.201c9.109,-2.49 29.17,-7.976 40.457,-11.062c1.933,-0.529 4.003,-0.126 5.596,1.09c1.593,1.216 2.528,3.106 2.528,5.111c0,1.393 0,2.852 0,4.287c0.001,1.558 0.938,2.963 2.377,3.561c1.438,0.598 3.095,0.272 4.2,-0.826c4.292,-4.222 9.386,-7.748 15.248,-10.612c9.145,-4.469 19.434,-6.704 30.866,-6.704Z" style="fill:#1a83fe;fill-rule:nonzero;"/><path d="M460.907,802.017c-9.353,-0 -16.991,-2.754 -22.915,-8.262c-5.924,-5.508 -8.886,-12.315 -8.886,-20.422c0,-8.314 2.962,-15.225 8.886,-20.733c5.924,-5.508 13.562,-8.262 22.915,-8.262c9.146,-0 16.681,2.754 22.604,8.262c5.924,5.508 8.886,12.419 8.886,20.733c0,8.107 -2.962,14.914 -8.886,20.422c-5.923,5.508 -13.458,8.262 -22.604,8.262Zm18.377,20.305c1.934,-0.529 4.003,-0.126 5.596,1.09c1.594,1.216 2.529,3.106 2.529,5.111c-0,29.216 -0,125.662 -0,148.558c-0,2.897 -1.939,5.437 -4.733,6.201c-9.109,2.491 -29.17,7.976 -40.457,11.063c-1.934,0.528 -4.003,0.125 -5.596,-1.091c-1.594,-1.216 -2.528,-3.106 -2.528,-5.11c-0,-29.217 -0,-125.663 -0,-148.559c-0,-2.897 1.938,-5.437 4.733,-6.201c9.108,-2.49 29.17,-7.976 40.456,-11.062Z" style="fill:#1a83fe;fill-rule:nonzero;"/><path d="M721.866,977.081c-0,2.897 -1.939,5.437 -4.734,6.201c-10.181,2.784 -34.049,9.311 -44.048,12.045c-2.7,0.738 -5.566,-0.355 -7.089,-2.703c-11.775,-18.156 -60.993,-94.048 -79.519,-122.614c-0.929,-1.434 -2.692,-2.085 -4.33,-1.6c-1.639,0.485 -2.763,1.99 -2.763,3.699c0,26.864 0,87.347 0,104.972c0,2.897 -1.938,5.437 -4.733,6.201c-9.108,2.491 -29.17,7.976 -40.457,11.063c-1.933,0.528 -4.002,0.125 -5.596,-1.091c-1.593,-1.216 -2.528,-3.106 -2.528,-5.11c0,-34.738 0,-166.333 0,-193.455c0,-2.897 1.938,-5.437 4.733,-6.201c10.192,-2.787 34.097,-9.323 44.078,-12.053c2.685,-0.734 5.538,0.343 7.068,2.67c11.791,17.934 61.012,92.798 79.523,120.953c0.937,1.425 2.696,2.065 4.329,1.577c1.633,-0.489 2.751,-1.991 2.751,-3.696c0,-26.442 0,-85.809 0,-103.25c0.001,-2.897 1.939,-5.437 4.734,-6.201c9.108,-2.49 29.169,-7.976 40.456,-11.062c1.934,-0.529 4.003,-0.126 5.596,1.09c1.594,1.216 2.529,3.106 2.529,5.111c-0,34.738 -0,166.333 -0,193.454Z" style="fill:#fff;fill-rule:nonzero;"/><path d="M924.521,904.28c0,3.131 -0.123,6.345 -0.368,9.64c-0.251,3.352 -3.045,5.945 -6.407,5.945c-20.981,0.004 -92.263,0.004 -110.527,0.004c-1.128,-0 -2.199,0.493 -2.932,1.351c-0.733,0.857 -1.054,1.992 -0.879,3.106c1.394,8.647 4.704,15.425 9.964,20.329c6.132,5.716 13.667,8.574 22.604,8.574c11.983,0 20.678,-4.554 26.083,-13.662c1.15,-1.945 3.242,-3.137 5.501,-3.137c8.996,-0.037 31.642,-0.037 44.193,-0.037c2.103,-0 4.073,1.028 5.275,2.753c1.202,1.725 1.485,3.929 0.757,5.901c-3.097,8.022 -7.437,15.431 -13.062,22.212c-7.586,9.146 -17.096,16.316 -28.527,21.513c-11.432,5.196 -24.215,7.794 -38.349,7.794c-17.044,0 -32.217,-3.637 -45.52,-10.912c-13.302,-7.275 -23.695,-17.667 -31.177,-31.178c-7.483,-13.51 -11.224,-29.307 -11.224,-47.39c-0,-18.083 3.689,-33.88 11.068,-47.39c7.378,-13.511 17.719,-23.903 31.022,-31.178c13.302,-7.275 28.579,-10.912 45.831,-10.912c16.836,-0 31.801,3.533 44.896,10.6c13.095,7.067 23.331,17.148 30.71,30.243c7.379,13.094 11.068,28.371 11.068,45.831Zm-58.625,-14.03c1.106,0 2.159,-0.474 2.891,-1.302c0.732,-0.828 1.074,-1.931 0.938,-3.028c-0.866,-7.14 -3.9,-12.972 -9.118,-17.494c-6.236,-5.405 -14.03,-8.107 -23.384,-8.107c-8.937,0 -16.472,2.598 -22.604,7.795c-5.062,4.29 -8.53,10.067 -10.405,17.333c-0.292,1.141 -0.04,2.354 0.682,3.285c0.723,0.931 1.835,1.475 3.014,1.475c12.447,0.043 46.267,0.043 57.986,0.043Z" style="fill:#fff;fill-rule:nonzero;"/><path d="M1019.71,996.566c-15.173,0 -28.684,-2.598 -40.531,-7.794c-11.848,-5.197 -21.201,-12.315 -28.06,-21.357c-5.264,-6.939 -8.753,-14.522 -10.467,-22.746c-0.366,-1.866 0.122,-3.798 1.33,-5.265c1.209,-1.468 3.01,-2.319 4.911,-2.319c10.807,-0.068 30.78,-0.068 40.203,-0.068c2.774,0 5.235,1.78 6.104,4.414c1.283,4.047 3.785,7.459 7.492,10.239c4.988,3.742 11.12,5.612 18.395,5.612c6.651,0 11.795,-1.299 15.433,-3.897c3.637,-2.598 5.456,-5.976 5.456,-10.133c-0,-4.988 -2.599,-8.678 -7.795,-11.068c-5.196,-2.39 -13.614,-5.04 -25.254,-7.95c-12.471,-2.91 -22.864,-5.976 -31.178,-9.198c-8.314,-3.221 -15.485,-8.314 -21.512,-15.277c-6.028,-6.963 -9.042,-16.368 -9.042,-28.216c0,-9.977 2.754,-19.07 8.262,-27.28c5.508,-8.21 13.615,-14.706 24.319,-19.486c10.704,-4.781 23.435,-7.171 38.193,-7.171c21.824,-0 39.024,5.404 51.599,16.212c10.707,9.203 17.534,20.968 20.481,35.295c0.391,1.889 -0.088,3.853 -1.305,5.348c-1.217,1.496 -3.043,2.364 -4.972,2.364c-10.136,0.019 -27.987,0.019 -36.71,0.019c-2.762,-0.001 -5.215,-1.765 -6.094,-4.382c-1.3,-4.013 -3.618,-7.332 -6.943,-9.96c-4.469,-3.534 -10.34,-5.3 -17.615,-5.3c-6.236,-0 -11.016,1.195 -14.342,3.585c-3.326,2.39 -4.988,5.664 -4.988,9.821c-0,4.988 2.65,8.73 7.95,11.224c5.3,2.494 13.562,4.988 24.786,7.483c12.887,3.325 23.384,6.599 31.49,9.821c8.106,3.221 15.225,8.418 21.357,15.589c6.131,7.17 9.301,16.784 9.509,28.839c-0,10.185 -2.858,19.278 -8.574,27.281c-5.716,8.002 -13.926,14.289 -24.63,18.862c-10.705,4.573 -23.124,6.859 -37.258,6.859Z" style="fill:#fff;fill-rule:nonzero;"/><path d="M1209.8,948.864c1.705,0 3.34,0.678 4.546,1.883c1.206,1.206 1.883,2.841 1.883,4.546c-0,8.598 -0,23.753 -0,32.35c-0,3.551 -2.878,6.429 -6.429,6.429l-20.696,-0c-19.33,-0 -34.399,-4.729 -45.208,-14.186c-10.808,-9.457 -16.212,-24.89 -16.212,-46.299l-0,-62.786c-0,-1.705 -0.677,-3.34 -1.883,-4.546c-1.206,-1.205 -2.841,-1.883 -4.546,-1.883l-8.343,0c-3.551,0 -6.429,-2.878 -6.429,-6.428c0,-8.398 0,-23.017 0,-31.415c0,-3.551 2.878,-6.429 6.429,-6.429c2.644,-0 5.699,-0 8.343,-0c3.551,-0 6.429,-2.878 6.429,-6.429c-0,-5.023 -0,-11.901 -0,-16.488c-0,-2.897 1.938,-5.436 4.733,-6.201c9.108,-2.49 29.17,-7.976 40.457,-11.062c1.933,-0.529 4.002,-0.126 5.596,1.091c1.593,1.216 2.528,3.105 2.528,5.11c-0,8.107 -0,20.19 -0,27.55c-0,1.705 0.677,3.34 1.883,4.546c1.205,1.206 2.841,1.883 4.546,1.883c6.279,-0 15.782,-0 22.061,-0c3.551,-0 6.429,2.878 6.429,6.429c0,8.398 0,23.017 0,31.415c0,3.55 -2.878,6.428 -6.429,6.428c-6.279,0 -15.782,0 -22.061,0c-3.551,0 -6.429,2.879 -6.429,6.429l-0,63.41c-0,5.196 1.247,8.937 3.741,11.224c2.494,2.286 6.651,3.429 12.471,3.429l12.59,0Z" style="fill:#fff;fill-rule:nonzero;"/></g><g><path d="M570.692,521.749l-169.631,-0c-11.362,-0 -20.572,-9.21 -20.572,-20.572c0,-50.88 0,-178.534 0,-178.534c0,0 182.611,-119.052 230.211,-150.085c6.828,-4.451 15.641,-4.451 22.47,0c47.6,31.033 230.211,150.085 230.211,150.085l-0,178.534c-0,11.362 -9.211,20.572 -20.572,20.572l-169.24,-0l0,131.151c0,5.456 -2.167,10.689 -6.025,14.546c-3.858,3.858 -9.09,6.026 -14.546,6.026c-17.931,-0 -43.804,-0 -61.735,-0c-5.456,-0 -10.688,-2.168 -14.546,-6.026c-3.858,-3.857 -6.025,-9.09 -6.025,-14.546l-0,-131.151Zm51.439,-230.649c42.644,-0 77.266,34.622 77.266,77.267c0,42.644 -34.622,77.266 -77.266,77.266c-42.645,0 -77.267,-34.622 -77.267,-77.266c-0,-42.645 34.622,-77.267 77.267,-77.267Z" style="fill:#fff;"/><path d="M275.838,236.366c-0,-0.054 -0,-0.107 0,-0.16c0.054,-6.897 3.559,-13.307 9.336,-17.074c72.639,-47.356 275.723,-179.756 325.732,-212.359c6.829,-4.452 15.642,-4.452 22.47,-0c49.998,32.596 253,164.942 325.682,212.327c5.783,3.77 9.289,10.189 9.336,17.091c0.048,6.903 -3.37,13.37 -9.101,17.219c-32.14,21.588 -82.872,55.663 -82.872,55.663c0,0 -193.858,-126.577 -243.042,-158.692c-6.83,-4.459 -15.648,-4.462 -22.481,-0.008c-49.243,32.101 -243.449,158.7 -243.449,158.7l-75.279,-50.756l-0,103.469c7.387,12.788 18.024,32.481 24.185,49.686c1.129,3.15 0.654,6.653 -1.273,9.389c-1.927,2.736 -5.064,4.365 -8.41,4.365c-13.104,-0 -32.233,-0 -45.336,-0c-3.347,-0 -6.484,-1.629 -8.411,-4.365c-1.926,-2.736 -2.401,-6.239 -1.273,-9.389c6.161,-17.205 16.798,-36.898 24.186,-49.686l-0,-125.42l-0,-0Z" style="fill:#1a83fe;"/></g></g></svg>