<?xml version="1.0" encoding="UTF-8" standalone="no"?><!DOCTYPE svg PUBLIC "-//W3C//DTD SVG 1.1//EN" "http://www.w3.org/Graphics/SVG/1.1/DTD/svg11.dtd"><svg width="100%" height="100%" viewBox="0 0 459 96" version="1.1" xmlns="http://www.w3.org/2000/svg" xmlns:xlink="http://www.w3.org/1999/xlink" xml:space="preserve" xmlns:serif="http://www.serif.com/" style="fill-rule:evenodd;clip-rule:evenodd;stroke-linejoin:round;stroke-miterlimit:2;"><g id="Watermark"><path d="M16.929,13.739c0.724,-0.198 1.499,-0.047 2.096,0.409c0.597,0.455 0.947,1.163 0.947,1.914l0,45.9c0,4.905 1.207,8.682 3.621,11.329c2.414,2.648 5.957,3.971 10.629,3.971c4.672,0 8.254,-1.323 10.745,-3.971c2.492,-2.647 3.738,-6.424 3.738,-11.329l-0,-41.756c-0,-1.085 0.726,-2.036 1.773,-2.323c3.412,-0.933 10.927,-2.988 15.156,-4.144c0.724,-0.198 1.499,-0.047 2.096,0.409c0.597,0.455 0.947,1.163 0.947,1.914l0,45.783c0,7.319 -1.557,13.51 -4.672,18.571c-3.114,5.061 -7.3,8.877 -12.555,11.446c-5.256,2.57 -11.116,3.855 -17.579,3.855c-6.462,-0 -12.244,-1.266 -17.344,-3.796c-5.1,-2.531 -9.13,-6.346 -12.089,-11.447c-2.959,-5.1 -4.438,-11.31 -4.438,-18.629l0,-41.639c0,-1.085 0.726,-2.036 1.773,-2.323c3.412,-0.933 10.928,-2.988 15.156,-4.144Z" style="fill:#c7c7cc;fill-rule:nonzero;"/><path d="M122.404,29.025c7.631,-0 13.724,2.472 18.279,7.417c4.555,4.944 6.833,11.738 6.833,20.381l-0,31.714c-0,1.084 -0.724,2.034 -1.77,2.322c-3.389,0.932 -10.834,2.98 -15.039,4.136c-0.724,0.2 -1.501,0.049 -2.098,-0.406c-0.598,-0.456 -0.949,-1.164 -0.949,-1.916l0,-33.164c0,-4.36 -1.129,-7.747 -3.387,-10.161c-2.258,-2.414 -5.295,-3.621 -9.11,-3.621c-3.816,-0 -6.852,1.207 -9.11,3.621c-2.259,2.414 -3.388,5.801 -3.388,10.161l0,29.025c0,1.085 -0.726,2.037 -1.773,2.323c-3.412,0.933 -10.927,2.988 -15.156,4.144c-0.724,0.198 -1.499,0.047 -2.096,-0.409c-0.597,-0.455 -0.947,-1.163 -0.947,-1.914c-0,-10.945 -0,-47.076 -0,-55.653c-0,-1.085 0.726,-2.037 1.773,-2.323c3.412,-0.933 10.928,-2.988 15.156,-4.144c0.724,-0.198 1.499,-0.047 2.096,0.409c0.597,0.455 0.947,1.163 0.947,1.914c0,0.522 0,1.069 0,1.606c0.001,0.584 0.352,1.11 0.891,1.334c0.538,0.224 1.159,0.102 1.573,-0.309c1.608,-1.582 3.516,-2.903 5.712,-3.976c3.426,-1.674 7.281,-2.511 11.563,-2.511Z" style="fill:#c7c7cc;fill-rule:nonzero;"/><path d="M171.459,22.951c-3.503,0 -6.365,-1.031 -8.584,-3.095c-2.219,-2.063 -3.329,-4.613 -3.329,-7.65c0,-3.115 1.11,-5.704 3.329,-7.767c2.219,-2.064 5.081,-3.095 8.584,-3.095c3.427,-0 6.249,1.031 8.468,3.095c2.219,2.063 3.329,4.652 3.329,7.767c0,3.037 -1.11,5.587 -3.329,7.65c-2.219,2.064 -5.041,3.095 -8.468,3.095Zm6.885,7.607c0.724,-0.198 1.499,-0.047 2.096,0.409c0.597,0.455 0.947,1.163 0.947,1.914c0,10.945 0,47.076 0,55.653c0,1.085 -0.726,2.037 -1.773,2.323c-3.412,0.933 -10.927,2.988 -15.156,4.144c-0.724,0.198 -1.499,0.047 -2.096,-0.409c-0.597,-0.455 -0.947,-1.163 -0.947,-1.914c-0,-10.945 -0,-47.076 -0,-55.653c-0,-1.085 0.726,-2.037 1.773,-2.323c3.412,-0.933 10.928,-2.988 15.156,-4.144Z" style="fill:#c7c7cc;fill-rule:nonzero;"/><path d="M269.219,88.534c0,1.085 -0.726,2.037 -1.773,2.323c-3.814,1.043 -12.755,3.488 -16.501,4.512c-1.011,0.277 -2.085,-0.133 -2.656,-1.013c-4.411,-6.801 -22.849,-35.232 -29.789,-45.933c-0.348,-0.537 -1.008,-0.781 -1.622,-0.599c-0.614,0.181 -1.035,0.745 -1.035,1.385c-0,10.064 -0,32.722 -0,39.325c-0,1.085 -0.726,2.037 -1.773,2.323c-3.413,0.933 -10.928,2.988 -15.156,4.144c-0.725,0.198 -1.5,0.047 -2.097,-0.409c-0.597,-0.455 -0.947,-1.163 -0.947,-1.914c0,-13.013 0,-62.311 0,-72.472c0,-1.085 0.726,-2.036 1.773,-2.323c3.818,-1.044 12.774,-3.493 16.513,-4.515c1.006,-0.275 2.074,0.129 2.647,1c4.418,6.718 22.857,34.764 29.792,45.312c0.35,0.533 1.01,0.773 1.621,0.59c0.612,-0.183 1.031,-0.746 1.031,-1.384c-0,-9.906 -0,-32.146 -0,-38.68c-0,-1.085 0.726,-2.036 1.773,-2.323c3.412,-0.933 10.928,-2.988 15.156,-4.144c0.724,-0.198 1.499,-0.047 2.096,0.409c0.597,0.455 0.947,1.163 0.947,1.914c0,13.014 0,62.312 0,72.472Z" style="fill:#c7c7cc;fill-rule:nonzero;"/><path d="M345.138,61.261c0,1.173 -0.046,2.377 -0.138,3.611c-0.094,1.256 -1.141,2.228 -2.4,2.227c-7.86,0.002 -34.564,0.002 -41.406,0.002c-0.422,-0 -0.823,0.185 -1.098,0.506c-0.275,0.321 -0.395,0.746 -0.329,1.164c0.522,3.239 1.762,5.778 3.733,7.615c2.297,2.142 5.119,3.212 8.467,3.212c4.49,0 7.747,-1.706 9.772,-5.118c0.431,-0.728 1.214,-1.175 2.06,-1.175c3.371,-0.014 11.854,-0.014 16.556,-0.014c0.788,0 1.526,0.385 1.976,1.032c0.45,0.646 0.556,1.471 0.284,2.21c-1.161,3.005 -2.786,5.781 -4.894,8.321c-2.842,3.426 -6.404,6.113 -10.687,8.059c-4.282,1.947 -9.071,2.92 -14.366,2.92c-6.385,0 -12.069,-1.362 -17.052,-4.088c-4.984,-2.725 -8.877,-6.618 -11.68,-11.679c-2.803,-5.062 -4.205,-10.979 -4.205,-17.754c0,-6.774 1.382,-12.692 4.147,-17.753c2.764,-5.061 6.638,-8.954 11.621,-11.68c4.983,-2.725 10.706,-4.088 17.169,-4.088c6.307,0 11.914,1.324 16.819,3.971c4.906,2.648 8.741,6.424 11.505,11.33c2.764,4.905 4.146,10.628 4.146,17.169Zm-21.962,-5.256c0.414,0 0.809,-0.177 1.083,-0.488c0.274,-0.31 0.402,-0.723 0.352,-1.134c-0.325,-2.675 -1.462,-4.86 -3.417,-6.554c-2.335,-2.024 -5.255,-3.036 -8.759,-3.036c-3.349,-0 -6.171,0.973 -8.468,2.92c-1.897,1.607 -3.196,3.771 -3.898,6.493c-0.11,0.427 -0.015,0.882 0.255,1.231c0.271,0.348 0.688,0.552 1.129,0.552c4.663,0.016 17.333,0.016 21.723,0.016Z" style="fill:#c7c7cc;fill-rule:nonzero;"/><path d="M380.798,95.833c-5.684,0 -10.746,-0.973 -15.184,-2.92c-4.438,-1.946 -7.942,-4.613 -10.512,-8c-1.972,-2.6 -3.279,-5.44 -3.921,-8.522c-0.137,-0.698 0.046,-1.422 0.498,-1.972c0.453,-0.55 1.128,-0.868 1.84,-0.868c4.048,-0.026 11.531,-0.026 15.061,-0.026c1.039,0 1.961,0.667 2.287,1.654c0.48,1.516 1.417,2.794 2.806,3.835c1.869,1.402 4.166,2.103 6.891,2.103c2.492,-0 4.419,-0.487 5.782,-1.46c1.362,-0.974 2.044,-2.239 2.044,-3.796c-0,-1.869 -0.974,-3.251 -2.92,-4.146c-1.947,-0.896 -5.101,-1.889 -9.461,-2.979c-4.672,-1.09 -8.565,-2.238 -11.68,-3.445c-3.114,-1.207 -5.801,-3.115 -8.059,-5.723c-2.258,-2.609 -3.387,-6.132 -3.387,-10.571c-0,-3.737 1.032,-7.144 3.095,-10.219c2.064,-3.076 5.1,-5.509 9.11,-7.3c4.01,-1.791 8.78,-2.687 14.308,-2.687c8.176,0 14.619,2.025 19.33,6.074c4.011,3.447 6.569,7.855 7.673,13.222c0.146,0.707 -0.033,1.443 -0.489,2.003c-0.456,0.561 -1.14,0.886 -1.863,0.886c-3.797,0.007 -10.484,0.007 -13.752,0.007c-1.035,-0 -1.953,-0.661 -2.283,-1.642c-0.487,-1.503 -1.355,-2.746 -2.601,-3.731c-1.674,-1.324 -3.874,-1.985 -6.599,-1.985c-2.336,-0 -4.127,0.447 -5.373,1.343c-1.245,0.895 -1.868,2.122 -1.868,3.679c-0,1.869 0.992,3.27 2.978,4.205c1.986,0.934 5.081,1.868 9.285,2.803c4.828,1.246 8.76,2.472 11.797,3.679c3.037,1.207 5.704,3.154 8.001,5.84c2.297,2.686 3.484,6.287 3.562,10.804c0,3.815 -1.071,7.222 -3.212,10.219c-2.141,2.998 -5.217,5.354 -9.227,7.067c-4.01,1.713 -8.662,2.569 -13.957,2.569Z" style="fill:#c7c7cc;fill-rule:nonzero;"/><path d="M452.008,77.963c0.639,0 1.252,0.254 1.703,0.706c0.452,0.451 0.706,1.064 0.706,1.703c-0,3.22 -0,8.898 -0,12.119c-0,1.33 -1.079,2.408 -2.409,2.408l-7.753,-0c-7.241,-0 -12.886,-1.771 -16.935,-5.314c-4.049,-3.543 -6.074,-9.325 -6.074,-17.345l0,-23.521c0,-0.638 -0.254,-1.251 -0.705,-1.703c-0.452,-0.451 -1.065,-0.705 -1.703,-0.705l-3.126,-0c-1.33,-0 -2.408,-1.078 -2.408,-2.408c-0,-3.146 -0,-8.623 -0,-11.769c-0,-1.33 1.078,-2.408 2.408,-2.408c0.991,-0 2.135,-0 3.126,-0c1.33,-0 2.408,-1.079 2.408,-2.409c0,-1.882 0,-4.458 0,-6.176c0,-1.086 0.726,-2.037 1.773,-2.323c3.412,-0.933 10.928,-2.988 15.156,-4.145c0.724,-0.198 1.499,-0.047 2.096,0.409c0.597,0.456 0.947,1.164 0.947,1.914c0,3.037 0,7.564 0,10.321c0,0.639 0.254,1.252 0.706,1.703c0.452,0.452 1.064,0.706 1.703,0.706c2.352,-0 5.912,-0 8.265,-0c1.33,-0 2.408,1.078 2.408,2.408c-0,3.146 -0,8.623 -0,11.769c-0,1.33 -1.078,2.408 -2.408,2.408c-2.353,-0 -5.913,-0 -8.265,-0c-1.33,-0 -2.409,1.078 -2.409,2.408l0,23.755c0,1.946 0.468,3.348 1.402,4.204c0.934,0.857 2.492,1.285 4.672,1.285l4.716,0Z" style="fill:#c7c7cc;fill-rule:nonzero;"/></g></svg>