<?xml version="1.0" encoding="UTF-8" standalone="no"?><!DOCTYPE svg PUBLIC "-//W3C//DTD SVG 1.1//EN" "http://www.w3.org/Graphics/SVG/1.1/DTD/svg11.dtd"><svg width="100%" height="100%" viewBox="0 0 2275 475" version="1.1" xmlns="http://www.w3.org/2000/svg" xmlns:xlink="http://www.w3.org/1999/xlink" xml:space="preserve" xmlns:serif="http://www.serif.com/" style="fill-rule:evenodd;clip-rule:evenodd;stroke-linejoin:round;stroke-miterlimit:2;"><g id="FullColour"><path d="M87.517,63.256c3.622,-0.99 7.498,-0.234 10.482,2.044c2.984,2.277 4.736,5.817 4.736,9.571l-0,229.494c-0,24.527 6.034,43.409 18.103,56.646c12.069,13.237 29.783,19.855 53.142,19.855c23.359,0 41.267,-6.618 53.725,-19.855c12.459,-13.237 18.688,-32.119 18.688,-56.646l-0,-208.773c-0,-5.427 3.63,-10.183 8.865,-11.615c17.06,-4.665 54.637,-14.94 75.777,-20.721c3.622,-0.99 7.498,-0.234 10.482,2.044c2.984,2.277 4.736,5.817 4.736,9.571l-0,228.91c-0,36.596 -7.787,67.547 -23.36,92.852c-15.572,25.306 -36.498,44.383 -62.777,57.23c-26.279,12.848 -55.575,19.271 -87.888,19.271c-32.314,0 -61.22,-6.326 -86.721,-18.979c-25.5,-12.653 -45.647,-31.729 -60.441,-57.23c-14.794,-25.5 -22.191,-56.548 -22.191,-93.144l-0,-208.189c-0,-5.427 3.63,-10.183 8.865,-11.615c17.06,-4.665 54.637,-14.94 75.777,-20.721Z" style="fill:#1a83fe;fill-rule:nonzero;"/><path d="M614.881,139.684c38.153,0 68.618,12.361 91.393,37.083c22.775,24.721 34.162,58.689 34.162,101.903l0,158.566c0,5.42 -3.621,10.172 -8.848,11.61c-16.948,4.661 -54.171,14.9 -75.193,20.682c-3.623,0.996 -7.504,0.245 -10.492,-2.033c-2.989,-2.278 -4.743,-5.82 -4.743,-9.577l0,-165.816c0,-21.802 -5.645,-38.737 -16.935,-50.806c-11.29,-12.069 -26.474,-18.103 -45.55,-18.103c-19.077,-0 -34.26,6.034 -45.55,18.103c-11.29,12.069 -16.935,29.004 -16.936,50.806l0,145.119c0.001,5.427 -3.63,10.184 -8.865,11.615c-17.06,4.665 -54.637,14.94 -75.777,20.721c-3.622,0.99 -7.498,0.235 -10.482,-2.043c-2.984,-2.278 -4.735,-5.817 -4.735,-9.572c-0,-54.723 -0,-235.373 -0,-278.257c-0,-5.427 3.63,-10.184 8.865,-11.615c17.06,-4.665 54.637,-14.94 75.777,-20.721c3.622,-0.99 7.498,-0.235 10.482,2.043c2.984,2.278 4.735,5.817 4.735,9.572c0,2.61 0,5.343 0,8.031c0.001,2.917 1.757,5.549 4.451,6.669c2.695,1.12 5.798,0.51 7.868,-1.547c8.039,-7.907 17.58,-14.512 28.56,-19.877c17.13,-8.371 36.401,-12.556 57.813,-12.556Z" style="fill:#1a83fe;fill-rule:nonzero;"/><path d="M860.151,109.317c-17.519,0 -31.826,-5.158 -42.922,-15.475c-11.096,-10.317 -16.643,-23.067 -16.643,-38.25c-0,-15.573 5.547,-28.518 16.643,-38.835c11.096,-10.317 25.403,-15.475 42.922,-15.475c17.13,-0 31.243,5.158 42.338,15.475c11.096,10.317 16.644,23.262 16.644,38.835c-0,15.183 -5.548,27.933 -16.644,38.25c-11.095,10.317 -25.208,15.475 -42.338,15.475Zm34.421,38.032c3.621,-0.99 7.497,-0.235 10.482,2.043c2.984,2.278 4.735,5.817 4.735,9.572c0,54.723 0,235.373 0,278.257c0,5.428 -3.63,10.184 -8.865,11.615c-17.061,4.665 -54.637,14.94 -75.777,20.721c-3.622,0.99 -7.498,0.235 -10.482,-2.043c-2.985,-2.278 -4.736,-5.817 -4.736,-9.572c0,-54.723 0,-235.373 0,-278.257c0,-5.427 3.631,-10.184 8.866,-11.615c17.06,-4.665 54.636,-14.94 75.777,-20.721Z" style="fill:#1a83fe;fill-rule:nonzero;"/><path d="M1348.94,437.221c-0,5.427 -3.63,10.184 -8.865,11.615c-19.071,5.215 -63.776,17.439 -82.505,22.561c-5.057,1.382 -10.427,-0.665 -13.279,-5.063c-22.054,-34.007 -114.242,-176.156 -148.942,-229.662c-1.741,-2.685 -5.042,-3.905 -8.111,-2.997c-3.069,0.908 -5.175,3.727 -5.175,6.928c0,50.318 0,163.606 0,196.618c0,5.428 -3.63,10.184 -8.865,11.615c-17.061,4.665 -54.637,14.94 -75.778,20.721c-3.621,0.99 -7.497,0.235 -10.481,-2.043c-2.985,-2.278 -4.736,-5.817 -4.736,-9.572c0,-65.066 0,-311.55 0,-362.35c0,-5.427 3.631,-10.183 8.865,-11.615c19.09,-5.22 63.865,-17.463 82.561,-22.575c5.03,-1.376 10.373,0.642 13.237,4.999c22.086,33.592 114.279,173.816 148.953,226.553c1.753,2.668 5.05,3.868 8.108,2.953c3.058,-0.916 5.153,-3.729 5.153,-6.922c0,-49.528 0,-160.724 0,-193.393c0,-5.427 3.631,-10.183 8.865,-11.615c17.061,-4.665 54.637,-14.94 75.778,-20.721c3.621,-0.99 7.497,-0.234 10.482,2.044c2.984,2.277 4.735,5.817 4.735,9.571c-0,65.066 -0,311.551 -0,362.35Z" style="fill:#303032;fill-rule:nonzero;"/><path d="M1728.52,300.861c0,5.866 -0.23,11.884 -0.69,18.056c-0.47,6.28 -5.702,11.136 -12,11.136c-39.297,0.007 -172.814,0.007 -207.023,0.007c-2.112,-0 -4.119,0.924 -5.492,2.53c-1.373,1.606 -1.974,3.732 -1.645,5.819c2.61,16.196 8.809,28.892 18.663,38.077c11.485,10.706 25.597,16.06 42.338,16.06c22.445,-0 38.73,-8.531 48.854,-25.591c2.155,-3.641 6.072,-5.875 10.304,-5.875c16.851,-0.069 59.267,-0.069 82.776,-0.069c3.939,-0.001 7.628,1.925 9.88,5.156c2.252,3.231 2.782,7.359 1.419,11.054c-5.802,15.025 -13.93,28.903 -24.466,41.603c-14.21,17.13 -32.022,30.562 -53.434,40.295c-21.412,9.733 -45.355,14.599 -71.829,14.599c-31.924,0 -60.344,-6.813 -85.26,-20.439c-24.917,-13.626 -44.383,-33.092 -58.398,-58.398c-14.015,-25.305 -21.023,-54.893 -21.023,-88.764c-0,-33.87 6.91,-63.459 20.731,-88.764c13.821,-25.306 33.189,-44.772 58.106,-58.398c24.916,-13.626 53.531,-20.439 85.844,-20.439c31.535,0 59.566,6.618 84.093,19.855c24.526,13.237 43.7,32.119 57.521,56.646c13.821,24.527 20.731,53.142 20.731,85.844Zm-109.807,-26.279c2.071,0.001 4.042,-0.887 5.414,-2.438c1.372,-1.552 2.012,-3.617 1.758,-5.672c-1.622,-13.374 -7.306,-24.298 -17.08,-32.768c-11.679,-10.122 -26.279,-15.183 -43.798,-15.183c-16.741,-0 -30.853,4.866 -42.338,14.599c-9.482,8.036 -15.979,18.857 -19.49,32.466c-0.547,2.138 -0.076,4.409 1.278,6.153c1.353,1.744 3.437,2.764 5.644,2.764c23.314,0.079 86.661,0.079 108.612,0.079Z" style="fill:#303032;fill-rule:nonzero;"/><path d="M1906.82,473.718c-28.42,0 -53.726,-4.866 -75.917,-14.599c-22.191,-9.733 -39.71,-23.067 -52.558,-40.003c-9.86,-12.997 -16.395,-27.199 -19.605,-42.605c-0.685,-3.494 0.229,-7.112 2.492,-9.861c2.263,-2.75 5.638,-4.343 9.199,-4.343c20.241,-0.128 57.652,-0.128 75.302,-0.128c5.195,0.001 9.805,3.334 11.433,8.268c2.402,7.581 7.088,13.971 14.032,19.179c9.343,7.007 20.828,10.511 34.454,10.511c12.458,0 22.094,-2.433 28.907,-7.299c6.813,-4.867 10.219,-11.193 10.219,-18.98c0,-9.343 -4.866,-16.254 -14.599,-20.731c-9.733,-4.477 -25.5,-9.441 -47.302,-14.891c-23.359,-5.451 -42.825,-11.193 -58.398,-17.227c-15.572,-6.035 -29.004,-15.573 -40.294,-28.615c-11.29,-13.042 -16.935,-30.659 -16.935,-52.85c-0,-18.687 5.158,-35.72 15.475,-51.098c10.317,-15.378 25.5,-27.544 45.55,-36.498c20.05,-8.955 43.896,-13.432 71.537,-13.432c40.879,0 73.095,10.122 96.648,30.367c20.056,17.238 32.843,39.274 38.362,66.11c0.734,3.536 -0.164,7.215 -2.444,10.016c-2.28,2.802 -5.7,4.428 -9.312,4.428c-18.986,0.035 -52.422,0.035 -68.761,0.035c-5.172,-0.001 -9.767,-3.305 -11.414,-8.208c-2.436,-7.516 -6.777,-13.732 -13.004,-18.655c-8.37,-6.619 -19.368,-9.928 -32.995,-9.928c-11.679,0 -20.633,2.239 -26.862,6.716c-6.229,4.477 -9.344,10.609 -9.344,18.395c-0,9.344 4.964,16.351 14.891,21.023c9.928,4.672 25.403,9.344 46.426,14.016c24.138,6.229 43.799,12.36 58.982,18.395c15.183,6.034 28.517,15.767 40.002,29.199c11.485,13.431 17.422,31.437 17.812,54.017c-0,19.077 -5.354,36.109 -16.06,51.098c-10.706,14.989 -26.084,26.766 -46.134,35.331c-20.05,8.565 -43.311,12.847 -69.785,12.847Z" style="fill:#303032;fill-rule:nonzero;"/><path d="M2262.86,384.37c3.193,-0 6.256,1.269 8.514,3.527c2.258,2.258 3.527,5.321 3.527,8.514c0,16.104 0,44.49 0,60.594c0,6.65 -5.391,12.041 -12.041,12.041l-38.765,0c-36.206,0 -64.432,-8.857 -84.676,-26.57c-20.245,-17.714 -30.367,-46.621 -30.367,-86.721l-0,-117.601c-0,-3.194 -1.269,-6.257 -3.527,-8.515c-2.258,-2.258 -5.321,-3.527 -8.514,-3.527l-15.628,0c-6.65,0 -12.041,-5.391 -12.041,-12.041c-0,-15.729 -0,-43.112 -0,-58.842c-0,-6.65 5.391,-12.041 12.041,-12.041c4.952,-0 10.676,-0 15.628,-0c6.65,-0 12.041,-5.391 12.041,-12.041c-0,-9.41 -0,-22.291 -0,-30.883c-0,-5.427 3.63,-10.183 8.865,-11.615c17.061,-4.665 54.637,-14.94 75.778,-20.721c3.621,-0.99 7.497,-0.234 10.481,2.043c2.985,2.278 4.736,5.818 4.736,9.572c-0,15.185 -0,37.817 -0,51.604c-0,3.193 1.268,6.256 3.527,8.514c2.258,2.258 5.32,3.527 8.514,3.527c11.761,-0 29.561,-0 41.323,-0c6.65,-0 12.041,5.391 12.041,12.041c0,15.73 0,43.113 0,58.842c0,6.65 -5.391,12.041 -12.041,12.041c-11.762,0 -29.562,0 -41.323,0c-6.65,0 -12.041,5.392 -12.041,12.042l-0,118.769c-0,9.733 2.336,16.741 7.007,21.023c4.672,4.283 12.459,6.424 23.359,6.424l23.582,-0Z" style="fill:#303032;fill-rule:nonzero;"/></g></svg>