<?xml version="1.0" encoding="UTF-8" standalone="no"?><!DOCTYPE svg PUBLIC "-//W3C//DTD SVG 1.1//EN" "http://www.w3.org/Graphics/SVG/1.1/DTD/svg11.dtd"><svg width="100%" height="100%" viewBox="0 0 1217 259" version="1.1" xmlns="http://www.w3.org/2000/svg" xmlns:xlink="http://www.w3.org/1999/xlink" xml:space="preserve" xmlns:serif="http://www.serif.com/" style="fill-rule:evenodd;clip-rule:evenodd;stroke-linejoin:round;stroke-miterlimit:2;"><g id="MonochromeLight"><path d="M48.407,36.14c1.934,-0.529 4.003,-0.125 5.596,1.091c1.594,1.216 2.529,3.106 2.529,5.11l-0,122.524c-0,13.095 3.221,23.176 9.665,30.243c6.443,7.067 15.9,10.6 28.372,10.6c12.471,0 22.032,-3.533 28.683,-10.6c6.651,-7.067 9.977,-17.148 9.977,-30.243l-0,-111.461c-0,-2.898 1.938,-5.437 4.733,-6.201c9.108,-2.491 29.17,-7.977 40.457,-11.063c1.933,-0.529 4.002,-0.125 5.596,1.091c1.593,1.216 2.528,3.106 2.528,5.11l-0,122.212c-0,19.539 -4.157,36.063 -12.471,49.573c-8.314,13.51 -19.486,23.695 -33.516,30.554c-14.03,6.859 -29.671,10.289 -46.923,10.289c-17.252,0 -32.685,-3.378 -46.299,-10.133c-13.614,-6.755 -24.37,-16.94 -32.269,-30.554c-7.898,-13.614 -11.847,-30.19 -11.847,-49.728l-0,-111.15c-0,-2.898 1.938,-5.437 4.733,-6.201c9.108,-2.491 29.17,-7.977 40.456,-11.063Z" style="fill:#fff;fill-rule:nonzero;"/><path d="M329.961,76.944c20.369,-0 36.634,6.599 48.793,19.798c12.159,13.198 18.239,31.333 18.239,54.405l0,84.656c0,2.894 -1.934,5.431 -4.724,6.199c-9.048,2.488 -28.921,7.955 -40.145,11.042c-1.934,0.532 -4.006,0.13 -5.601,-1.086c-1.596,-1.216 -2.532,-3.107 -2.532,-5.113l-0,-88.527c-0,-11.64 -3.014,-20.681 -9.042,-27.125c-6.027,-6.443 -14.134,-9.665 -24.318,-9.665c-10.185,0 -18.291,3.222 -24.319,9.665c-6.028,6.444 -9.042,15.485 -9.042,27.125l0,77.478c0,2.897 -1.938,5.436 -4.733,6.201c-9.108,2.49 -29.17,7.976 -40.456,11.062c-1.934,0.529 -4.003,0.126 -5.596,-1.091c-1.594,-1.216 -2.529,-3.105 -2.529,-5.11c0,-29.216 0,-125.663 0,-148.558c0,-2.898 1.939,-5.437 4.733,-6.201c9.109,-2.491 29.17,-7.977 40.457,-11.063c1.933,-0.529 4.003,-0.125 5.596,1.091c1.593,1.216 2.528,3.106 2.528,5.11c0,1.394 0,2.853 0,4.288c0.001,1.557 0.938,2.962 2.377,3.56c1.438,0.598 3.095,0.273 4.2,-0.826c4.292,-4.221 9.386,-7.747 15.248,-10.612c9.145,-4.469 19.434,-6.703 30.866,-6.703Z" style="fill:#fff;fill-rule:nonzero;"/><path d="M460.907,60.731c-9.353,0 -16.991,-2.754 -22.915,-8.262c-5.924,-5.508 -8.886,-12.315 -8.886,-20.421c0,-8.314 2.962,-15.225 8.886,-20.733c5.924,-5.508 13.562,-8.262 22.915,-8.262c9.146,-0 16.681,2.754 22.604,8.262c5.924,5.508 8.886,12.419 8.886,20.733c0,8.106 -2.962,14.913 -8.886,20.421c-5.923,5.508 -13.458,8.262 -22.604,8.262Zm18.377,20.305c1.934,-0.529 4.003,-0.125 5.596,1.091c1.594,1.216 2.529,3.106 2.529,5.11c-0,29.216 -0,125.663 -0,148.559c-0,2.897 -1.939,5.436 -4.733,6.201c-9.109,2.49 -29.17,7.976 -40.457,11.062c-1.934,0.529 -4.003,0.126 -5.596,-1.091c-1.594,-1.216 -2.528,-3.105 -2.528,-5.11c-0,-29.216 -0,-125.663 -0,-148.558c-0,-2.898 1.938,-5.437 4.733,-6.201c9.108,-2.491 29.17,-7.977 40.456,-11.063Z" style="fill:#fff;fill-rule:nonzero;"/><path d="M721.866,235.796c-0,2.897 -1.939,5.436 -4.734,6.201c-10.181,2.784 -34.049,9.31 -44.048,12.044c-2.7,0.739 -5.566,-0.355 -7.089,-2.703c-11.775,-18.156 -60.993,-94.047 -79.519,-122.613c-0.929,-1.434 -2.692,-2.085 -4.33,-1.6c-1.639,0.484 -2.763,1.99 -2.763,3.698c0,26.865 0,87.348 0,104.973c0,2.897 -1.938,5.436 -4.733,6.201c-9.108,2.49 -29.17,7.976 -40.457,11.062c-1.933,0.529 -4.002,0.126 -5.596,-1.091c-1.593,-1.216 -2.528,-3.105 -2.528,-5.11c0,-34.738 0,-166.333 0,-193.454c0,-2.898 1.938,-5.437 4.733,-6.201c10.192,-2.787 34.097,-9.324 44.078,-12.053c2.685,-0.734 5.538,0.343 7.068,2.669c11.791,17.934 61.012,92.798 79.523,120.954c0.937,1.424 2.696,2.065 4.329,1.576c1.633,-0.488 2.751,-1.991 2.751,-3.695c0,-26.442 0,-85.809 0,-103.25c0.001,-2.898 1.939,-5.437 4.734,-6.201c9.108,-2.491 29.169,-7.977 40.456,-11.063c1.934,-0.529 4.003,-0.125 5.596,1.091c1.594,1.216 2.529,3.106 2.529,5.11c-0,34.738 -0,166.333 -0,193.455Z" style="fill:#fff;fill-rule:nonzero;"/><path d="M924.521,162.995c0,3.131 -0.123,6.344 -0.368,9.639c-0.251,3.353 -3.045,5.945 -6.407,5.945c-20.981,0.004 -92.263,0.004 -110.527,0.004c-1.128,0 -2.199,0.494 -2.932,1.351c-0.733,0.857 -1.054,1.992 -0.879,3.107c1.394,8.647 4.704,15.425 9.964,20.329c6.132,5.716 13.667,8.574 22.604,8.574c11.983,-0 20.678,-4.554 26.083,-13.663c1.15,-1.944 3.242,-3.137 5.501,-3.137c8.996,-0.036 31.642,-0.036 44.193,-0.036c2.103,-0.001 4.073,1.027 5.275,2.752c1.202,1.725 1.485,3.929 0.757,5.902c-3.097,8.022 -7.437,15.431 -13.062,22.212c-7.586,9.145 -17.096,16.316 -28.527,21.512c-11.432,5.197 -24.215,7.795 -38.349,7.795c-17.044,-0 -32.217,-3.638 -45.52,-10.912c-13.302,-7.275 -23.695,-17.668 -31.177,-31.178c-7.483,-13.511 -11.224,-29.307 -11.224,-47.39c-0,-18.084 3.689,-33.88 11.068,-47.391c7.378,-13.51 17.719,-23.903 31.022,-31.177c13.302,-7.275 28.579,-10.913 45.831,-10.913c16.836,0 31.801,3.534 44.896,10.601c13.095,7.067 23.331,17.148 30.71,30.242c7.379,13.095 11.068,28.372 11.068,45.832Zm-58.625,-14.03c1.106,-0 2.159,-0.474 2.891,-1.303c0.732,-0.828 1.074,-1.93 0.938,-3.028c-0.866,-7.14 -3.9,-12.972 -9.118,-17.494c-6.236,-5.404 -14.03,-8.106 -23.384,-8.106c-8.937,-0 -16.472,2.598 -22.604,7.794c-5.062,4.29 -8.53,10.068 -10.405,17.333c-0.292,1.142 -0.04,2.355 0.682,3.285c0.723,0.931 1.835,1.476 3.014,1.476c12.447,0.043 46.267,0.043 57.986,0.043Z" style="fill:#fff;fill-rule:nonzero;"/><path d="M1019.71,255.281c-15.173,-0 -28.684,-2.598 -40.531,-7.795c-11.848,-5.196 -21.201,-12.315 -28.06,-21.356c-5.264,-6.94 -8.753,-14.522 -10.467,-22.747c-0.366,-1.866 0.122,-3.797 1.33,-5.265c1.209,-1.468 3.01,-2.318 4.911,-2.318c10.807,-0.069 30.78,-0.069 40.203,-0.069c2.774,0.001 5.235,1.78 6.104,4.414c1.283,4.048 3.785,7.46 7.492,10.24c4.988,3.741 11.12,5.612 18.395,5.612c6.651,-0 11.795,-1.299 15.433,-3.897c3.637,-2.599 5.456,-5.976 5.456,-10.133c-0,-4.989 -2.599,-8.678 -7.795,-11.068c-5.196,-2.391 -13.614,-5.041 -25.254,-7.951c-12.471,-2.91 -22.864,-5.975 -31.178,-9.197c-8.314,-3.222 -15.485,-8.314 -21.512,-15.277c-6.028,-6.963 -9.042,-16.369 -9.042,-28.216c0,-9.977 2.754,-19.071 8.262,-27.281c5.508,-8.21 13.615,-14.705 24.319,-19.486c10.704,-4.78 23.435,-7.171 38.193,-7.171c21.824,0 39.024,5.404 51.599,16.213c10.707,9.203 17.534,20.968 20.481,35.295c0.391,1.888 -0.088,3.852 -1.305,5.348c-1.217,1.495 -3.043,2.364 -4.972,2.364c-10.136,0.018 -27.987,0.018 -36.71,0.018c-2.762,-0 -5.215,-1.764 -6.094,-4.382c-1.3,-4.012 -3.618,-7.331 -6.943,-9.96c-4.469,-3.533 -10.34,-5.3 -17.615,-5.3c-6.236,0 -11.016,1.195 -14.342,3.586c-3.326,2.39 -4.988,5.664 -4.988,9.821c-0,4.988 2.65,8.729 7.95,11.224c5.3,2.494 13.562,4.988 24.786,7.482c12.887,3.326 23.384,6.6 31.49,9.821c8.106,3.222 15.225,8.418 21.357,15.589c6.131,7.171 9.301,16.784 9.509,28.84c-0,10.184 -2.858,19.278 -8.574,27.28c-5.716,8.002 -13.926,14.29 -24.63,18.863c-10.705,4.572 -23.124,6.859 -37.258,6.859Z" style="fill:#fff;fill-rule:nonzero;"/><path d="M1209.8,207.579c1.705,-0 3.34,0.677 4.546,1.883c1.206,1.205 1.883,2.84 1.883,4.545c-0,8.598 -0,23.753 -0,32.351c-0,3.55 -2.878,6.429 -6.429,6.429l-20.696,-0c-19.33,-0 -34.399,-4.729 -45.208,-14.186c-10.808,-9.458 -16.212,-24.891 -16.212,-46.299l-0,-62.786c-0,-1.705 -0.677,-3.34 -1.883,-4.546c-1.206,-1.206 -2.841,-1.883 -4.546,-1.883l-8.343,-0c-3.551,0 -6.429,-2.878 -6.429,-6.429c0,-8.398 0,-23.017 0,-31.415c0,-3.55 2.878,-6.428 6.429,-6.428c2.644,-0 5.699,-0 8.343,-0c3.551,-0 6.429,-2.879 6.429,-6.429c-0,-5.024 -0,-11.901 -0,-16.488c-0,-2.897 1.938,-5.437 4.733,-6.201c9.108,-2.491 29.17,-7.976 40.457,-11.063c1.933,-0.528 4.002,-0.125 5.596,1.091c1.593,1.216 2.528,3.106 2.528,5.11c-0,8.107 -0,20.19 -0,27.551c-0,1.705 0.677,3.34 1.883,4.546c1.205,1.205 2.841,1.883 4.546,1.883c6.279,-0 15.782,-0 22.061,-0c3.551,-0 6.429,2.878 6.429,6.428c0,8.398 0,23.017 0,31.415c0,3.551 -2.878,6.429 -6.429,6.429c-6.279,-0 -15.782,-0 -22.061,-0c-3.551,0 -6.429,2.878 -6.429,6.429l-0,63.409c-0,5.197 1.247,8.938 3.741,11.224c2.494,2.287 6.651,3.43 12.471,3.43l12.59,-0Z" style="fill:#fff;fill-rule:nonzero;"/></g></svg>