<?xml version="1.0" encoding="UTF-8" standalone="no"?><!DOCTYPE svg PUBLIC "-//W3C//DTD SVG 1.1//EN" "http://www.w3.org/Graphics/SVG/1.1/DTD/svg11.dtd"><svg width="100%" height="100%" viewBox="0 0 6021 3863" version="1.1" xmlns="http://www.w3.org/2000/svg" xmlns:xlink="http://www.w3.org/1999/xlink" xml:space="preserve" xmlns:serif="http://www.serif.com/" style="fill-rule:evenodd;clip-rule:evenodd;stroke-linecap:round;stroke-linejoin:round;stroke-miterlimit:1.5;"><g><ellipse cx="843.03" cy="2005.77" rx="350.782" ry="185.41" style="fill:url(#_Radial1);"/><ellipse cx="1875.34" cy="3148.59" rx="175.391" ry="92.705" style="fill:url(#_Radial2);"/><ellipse cx="2665.53" cy="3725.43" rx="257.197" ry="135.944" style="fill:url(#_Radial3);"/><ellipse cx="4458.47" cy="1606.19" rx="140.626" ry="74.33" style="fill:url(#_Radial4);"/><ellipse cx="5619.21" cy="2393.19" rx="398.254" ry="210.502" style="fill:url(#_Radial5);"/><path d="M2441.67,2166.21l-0,721.423l800,-387.63l-0.46,-733.563l-799.54,399.77Z" style="fill:url(#_Linear6);"/><path d="M4224.27,1235.26c66.516,-0 120.519,170.701 120.519,237.217c0,66.516 -54.003,120.519 -120.519,120.519c-66.516,0 -120.519,-54.003 -120.519,-120.519c0,-66.516 54.003,-237.217 120.519,-237.217Z" style="fill:url(#_Radial7);"/><path d="M2240.75,3154.68c92.492,-0 167.583,237.362 167.583,329.853c0,92.492 -75.091,167.584 -167.583,167.584c-92.492,-0 -167.583,-75.092 -167.583,-167.584c-0,-92.491 75.091,-329.853 167.583,-329.853Z" style="fill:url(#_Radial8);"/><path d="M1597.5,2650.01c79.565,-0 144.163,204.19 144.163,283.755c-0,79.566 -64.598,144.163 -144.163,144.163c-79.566,0 -144.163,-64.597 -144.163,-144.163c-0,-79.565 64.597,-283.755 144.163,-283.755Z" style="fill:url(#_Radial9);"/><circle cx="296.183" cy="1550" r="277.778" style="fill:url(#_Radial10);"/><circle cx="5019.44" cy="1934.37" r="277.778" style="fill:url(#_Radial11);"/><path d="M2443.94,1632.2l1200,-600l-2.012,-132.07l-1200.26,599.871l2.269,132.199Z" style="fill:url(#_Linear12);"/><path d="M2682.9,1977.11l295.999,-148l-7.646,-460.316l-296.257,147.871l7.904,460.445Z" style="fill:url(#_Linear13);"/><path d="M2975.66,1633.66l265.55,133.235l0.315,502.029l400.145,-202.259l-3.27,-498.365l-263.397,131.238l0,-530.793l-400,201.92l0.657,262.995Z" style="fill:url(#_Linear14);"/><path d="M3375,1699.54l263.41,-129.164l-263.41,-133.773l0,262.937Z" style="fill:url(#_Linear15);"/><path d="M2664.83,1986.15l-556.556,-283.85l2.332,-236.769l331.064,170.071l231.064,-109.898l-7.904,460.446Z" style="fill:url(#_Linear16);"/><path d="M2408.33,516.667l0,400l533.334,-266.667l-0,-400l-533.334,266.667Z" style="fill:url(#_Linear17);"/><path d="M1808.33,1952.27l0,200l-500,-250l0,-200l500,250Z" style="fill:url(#_Linear18);"/><path d="M1875,1350l-0,112.149l-633.333,-316.666l-0,-112.15l633.333,316.667Z" style="fill:url(#_Radial19);"/><path d="M3246.33,1764.34l-805.124,402.102l-638.427,-313.66l305.553,-144.873l568.936,274.295l301.634,-153.087l0,-193.821l267.428,129.044Z" style="fill:url(#_Radial20);"/><path d="M3075,3016.67l100,50l1000,-500l-0,-100l-1100,550Z" style="fill:url(#_Linear21);"/><path d="M1941.67,283.333l-0,400" style="fill:none;stroke:#101013;stroke-width:29.17px;"/><path d="M2408.33,516.667l0,400" style="fill:none;stroke:#101013;stroke-width:29.17px;"/><path d="M2941.67,250l-0,400" style="fill:none;stroke:#101013;stroke-width:29.17px;"/><path d="M2941.67,650l-533.334,266.667l-466.666,-233.334" style="fill:none;stroke:#101013;stroke-width:29.17px;"/><path d="M2475,16.667l466.667,233.333l-533.334,266.667l-466.666,-233.334l533.333,-266.666Z" style="fill:none;stroke:#101013;stroke-width:29.17px;"/><path d="M2608.33,816.667l0,-300l133.334,-66.667l-0,300" style="fill:none;stroke:#101013;stroke-width:29.17px;"/><path d="M2941.67,550l700,350" style="fill:none;stroke:#101013;stroke-width:29.17px;"/><path d="M3641.67,900l-0,133.333" style="fill:none;stroke:#101013;stroke-width:29.17px;"/><path d="M1941.67,416.667l-833.334,416.666" style="fill:none;stroke:#101013;stroke-width:29.17px;"/><path d="M1108.33,833.333l1333.33,666.667" style="fill:none;stroke:#101013;stroke-width:29.17px;"/><path d="M3641.67,900l-1200,600" style="fill:none;stroke:#101013;stroke-width:29.17px;"/><path d="M3641.67,1033.33l-1200,600" style="fill:none;stroke:#101013;stroke-width:29.17px;"/><path d="M2441.67,1633.33l-0,-133.333" style="fill:none;stroke:#101013;stroke-width:29.17px;"/><path d="M1875,1350l-0,466.667" style="fill:none;stroke:#101013;stroke-width:29.17px;"/><path d="M1875,1816.67l233.333,-116.667" style="fill:none;stroke:#101013;stroke-width:29.17px;"/><path d="M2108.33,1700l564.398,282.199" style="fill:none;stroke:#101013;stroke-width:29.17px;"/><path d="M2741.67,2016.67l500,-250" style="fill:none;stroke:#101013;stroke-width:29.17px;"/><path d="M3241.67,1766.67l-266.667,-133.334" style="fill:none;stroke:#101013;stroke-width:29.17px;"/><path d="M2975,1366.67l0,466.666" style="fill:none;stroke:#101013;stroke-width:29.17px;"/><path d="M2675,1983.33l0,-466.666" style="fill:none;stroke:#101013;stroke-width:29.17px;"/><path d="M1808.33,1850l633.334,316.667" style="fill:none;stroke:#101013;stroke-width:29.17px;"/><path d="M2441.67,2166.67l300,-150" style="fill:none;stroke:#101013;stroke-width:29.17px;"/><path d="M2441.67,2166.67l-0,733.333" style="fill:none;stroke:#101013;stroke-width:29.17px;"/><path d="M2441.67,2900l-633.334,-316.667" style="fill:none;stroke:#101013;stroke-width:29.17px;"/><path d="M2441.67,2766.67l-633.334,-316.667" style="fill:none;stroke:#101013;stroke-width:29.17px;"/><path d="M2441.67,2366.67l-633.334,-316.667" style="fill:none;stroke:#101013;stroke-width:29.17px;"/><path d="M1808.33,2583.33l0,-633.333" style="fill:none;stroke:#101013;stroke-width:29.17px;"/><path d="M2441.67,2900l800,-400" style="fill:none;stroke:#101013;stroke-width:29.17px;"/><path d="M2441.67,2766.67l800,-400" style="fill:none;stroke:#101013;stroke-width:29.17px;"/><path d="M2441.67,2366.67l800,-400" style="fill:none;stroke:#101013;stroke-width:29.17px;"/><path d="M3075,3016.67l1100,-550l566.667,283.333l-1100,550l-566.667,-283.333Z" style="fill:none;stroke:#101013;stroke-width:29.17px;"/><path d="M3241.67,2500l-0,-733.333" style="fill:none;stroke:#101013;stroke-width:29.17px;"/><path d="M3375,1433.33l266.667,133.334" style="fill:none;stroke:#101013;stroke-width:29.17px;"/><path d="M3375,1166.67l0,533.333" style="fill:none;stroke:#101013;stroke-width:29.17px;"/><path d="M3375,1700l266.667,-133.333" style="fill:none;stroke:#101013;stroke-width:29.17px;"/><path d="M3641.67,1566.67l-0,500" style="fill:none;stroke:#101013;stroke-width:29.17px;"/><path d="M3641.67,2066.67l-400,200" style="fill:none;stroke:#101013;stroke-width:29.17px;"/><path d="M3241.67,2066.67l166.666,-83.334l0,-200l-166.666,83.334" style="fill:none;stroke:#101013;stroke-width:29.17px;"/><path d="M3113,1297.67l-0,366.667l133.333,-66.667l-0,-364.335" style="fill:none;stroke:#101013;stroke-width:29.17px;"/><path d="M2108.33,1700l0,-233.333" style="fill:none;stroke:#101013;stroke-width:29.17px;"/><path d="M1875,1816.67l-633.333,-316.667" style="fill:none;stroke:#101013;stroke-width:29.17px;"/><path d="M1241.67,1033.33l-0,466.667" style="fill:none;stroke:#101013;stroke-width:29.17px;"/><path d="M1741.67,1750l-0,-466.667" style="fill:none;stroke:#101013;stroke-width:29.17px;"/><path d="M2441.67,1633.33l-1333.33,-666.666" style="fill:none;stroke:#101013;stroke-width:29.17px;"/><path d="M1341.67,1083.33l-0,466.667" style="fill:none;stroke:#101013;stroke-width:29.17px;"/><path d="M1241.67,1433.33l-133.334,66.667" style="fill:none;stroke:#101013;stroke-width:29.17px;"/><path d="M1108.33,1500l700,350" style="fill:none;stroke:#101013;stroke-width:29.17px;"/><path d="M1808.33,1950l-700,-350" style="fill:none;stroke:#101013;stroke-width:29.17px;"/><path d="M1108.33,1600l0,-100" style="fill:none;stroke:#101013;stroke-width:29.17px;"/><path d="M1808.33,2316.67l-500,-250" style="fill:none;stroke:#101013;stroke-width:29.17px;"/><path d="M1308.33,2066.67l0,-366.667" style="fill:none;stroke:#101013;stroke-width:29.17px;"/><path d="M1508.33,2166.67l0,-366.667" style="fill:none;stroke:#101013;stroke-width:29.17px;"/><path d="M1675,1883.33l0,366.667" style="fill:none;stroke:#101013;stroke-width:29.17px;"/><path d="M1775,2300l-1100,550" style="fill:none;stroke:#101013;stroke-width:29.17px;"/><path d="M675,2850l-333.333,-166.667" style="fill:none;stroke:#101013;stroke-width:29.17px;"/><path d="M341.667,2683.33l1100,-550" style="fill:none;stroke:#101013;stroke-width:29.17px;"/><path d="M608.333,2550l333.334,166.667" style="fill:none;stroke:#101013;stroke-width:16.67px;"/><path d="M891.667,2408.33l333.333,166.667" style="fill:none;stroke:#101013;stroke-width:16.67px;"/><path d="M1175,2266.67l333.333,166.666" style="fill:none;stroke:#101013;stroke-width:16.67px;"/><path d="M1541.67,1183.33l-0,466.667" style="fill:none;stroke:#101013;stroke-width:16.67px;"/><path d="M2825,1441.67l-0,466.666" style="fill:none;stroke:#101013;stroke-width:16.67px;"/><path d="M2641.67,2266.67l-0,400" style="fill:none;stroke:#101013;stroke-width:16.67px;"/><path d="M2275,2283.33l0,400" style="fill:none;stroke:#101013;stroke-width:16.67px;"/><path d="M1972.73,2132.2l-0,400" style="fill:none;stroke:#101013;stroke-width:16.67px;"/><path d="M3059.47,2057.77l-0,400" style="fill:none;stroke:#101013;stroke-width:16.67px;"/><path d="M2308.33,1566.67l0,231.064" style="fill:none;stroke:#101013;stroke-width:16.67px;"/><path d="M2508.33,1600l0,302.332" style="fill:none;stroke:#101013;stroke-width:16.67px;"/><path d="M4175,2466.67l-0,100l466.667,233.333" style="fill:none;stroke:#101013;stroke-width:29.17px;"/><path d="M4175,2566.67l-1000,500" style="fill:none;stroke:#101013;stroke-width:29.17px;"/><circle cx="296.184" cy="1550" r="277.778" style="fill:none;stroke:#101013;stroke-width:29.17px;"/><circle cx="5019.44" cy="1934.37" r="277.778" style="fill:none;stroke:#101013;stroke-width:29.17px;"/><path d="M272.553,1826.7c7.795,0.739 15.674,1.074 23.631,1.074c7.957,-0 15.836,-0.335 23.631,-1.074l0,171.826c-16.755,11.575 -32.437,10.747 -47.262,-0l0,-171.826Z" style="fill:none;stroke:#101013;stroke-width:29.17px;"/><path d="M4995.81,2211.07c7.795,0.738 15.674,1.073 23.63,1.073c7.957,0 15.836,-0.335 23.631,-1.073l0,171.825c-16.755,11.575 -32.437,10.747 -47.261,-0l-0,-171.825Z" style="fill:none;stroke:#101013;stroke-width:29.17px;"/><path d="M272.552,1917.19l0,81.337c14.825,10.747 30.507,11.575 47.262,-0l-0,-81.337c96.56,5.509 171.475,44.326 171.475,91.328c0,50.775 -87.424,91.998 -195.106,91.998c-107.682,0 -195.106,-41.223 -195.106,-91.998c-0,-47.002 74.915,-85.819 171.475,-91.328Z" style="fill:none;stroke:#101013;stroke-width:29.17px;"/><path d="M4995.81,2301.56l0,81.337c14.825,10.747 30.507,11.575 47.262,-0l0,-81.337c96.56,5.509 171.476,44.326 171.476,91.329c-0,50.775 -87.424,91.997 -195.107,91.997c-107.682,0 -195.106,-41.222 -195.106,-91.997c0,-47.003 74.916,-85.82 171.475,-91.329Z" style="fill:none;stroke:#101013;stroke-width:29.17px;"/><path d="M1597.5,2650.01c79.565,-0 144.163,204.19 144.163,283.755c-0,79.566 -64.598,144.163 -144.163,144.163c-79.566,0 -144.163,-64.597 -144.163,-144.163c-0,-79.565 64.597,-283.755 144.163,-283.755Z" style="fill:none;stroke:#101013;stroke-width:29.17px;"/><path d="M4224.27,1235.26c66.516,-0 120.519,170.701 120.519,237.217c0,66.516 -54.003,120.519 -120.519,120.519c-66.516,0 -120.519,-54.003 -120.519,-120.519c0,-66.516 54.003,-237.217 120.519,-237.217Z" style="fill:none;stroke:#101013;stroke-width:29.17px;"/><path d="M2240.75,3154.68c92.492,-0 167.583,237.362 167.583,329.853c0,92.492 -75.091,167.584 -167.583,167.584c-92.492,-0 -167.583,-75.092 -167.583,-167.584c-0,-92.491 75.091,-329.853 167.583,-329.853Z" style="fill:none;stroke:#101013;stroke-width:29.17px;"/><path d="M1596.56,3077.93l0,58.662" style="fill:none;stroke:#101013;stroke-width:29.17px;"/><path d="M4223.48,1592.99l0,49.04" style="fill:none;stroke:#101013;stroke-width:29.17px;"/><path d="M2239.65,3652.11l0,68.192" style="fill:none;stroke:#101013;stroke-width:29.17px;"/><path d="M2675,1983.33l300,-150" style="fill:none;stroke:#101013;stroke-width:29.17px;"/><path d="M1108.33,833.333l0,133.334" style="fill:none;stroke:#101013;stroke-width:29.17px;"/><path d="M3352.77,3078.3c-0,-0 29,-44.287 88.893,-44.447" style="fill:none;stroke:#101013;stroke-width:29.17px;"/><path d="M3607.56,3205.68c-0,0 29.001,-44.286 88.893,-44.446" style="fill:none;stroke:#101013;stroke-width:29.17px;"/><path d="M3597.48,2955.94c-0,-0 29,-44.287 88.893,-44.447" style="fill:none;stroke:#101013;stroke-width:29.17px;"/><path d="M3852.26,3083.33c-0,0 29.001,-44.286 88.893,-44.446" style="fill:none;stroke:#101013;stroke-width:29.17px;"/><path d="M3597.48,3077.91c-0,0 29,-44.286 88.893,-44.446" style="fill:none;stroke:#101013;stroke-width:29.17px;"/><path d="M3836.36,2836.5c0,0 29.001,-44.286 88.893,-44.446" style="fill:none;stroke:#101013;stroke-width:29.17px;"/><path d="M4091.14,2963.89c0,-0 29.001,-44.287 88.894,-44.447" style="fill:none;stroke:#101013;stroke-width:29.17px;"/><path d="M3836.36,2958.46c0,0 29.001,-44.287 88.893,-44.447" style="fill:none;stroke:#101013;stroke-width:29.17px;"/><path d="M4064.66,2722.35c0,-0 29.001,-44.287 88.893,-44.447" style="fill:none;stroke:#101013;stroke-width:29.17px;"/><path d="M4319.44,2849.74c0,-0 29.001,-44.287 88.893,-44.447" style="fill:none;stroke:#101013;stroke-width:29.17px;"/><path d="M4064.66,2844.32c0,-0 29.001,-44.287 88.893,-44.447" style="fill:none;stroke:#101013;stroke-width:29.17px;"/></g><defs><radialGradient id="_Radial1" cx="0" cy="0" r="1" gradientUnits="userSpaceOnUse" gradientTransform="matrix(3.12194,-378.238,-841.293,43.8705,1081.45,2008.06)"><stop offset="0" style="stop-color:#1a83fe;stop-opacity:0"/><stop offset="0.55" style="stop-color:#1a83fe;stop-opacity:0.1"/><stop offset="1" style="stop-color:#1a83fe;stop-opacity:0.5"/></radialGradient><radialGradient id="_Radial2" cx="0" cy="0" r="1" gradientUnits="userSpaceOnUse" gradientTransform="matrix(1.56097,-189.119,-420.646,21.9352,1994.55,3149.74)"><stop offset="0" style="stop-color:#1a83fe;stop-opacity:0"/><stop offset="0.55" style="stop-color:#1a83fe;stop-opacity:0.11"/><stop offset="1" style="stop-color:#1a83fe;stop-opacity:0.5"/></radialGradient><radialGradient id="_Radial3" cx="0" cy="0" r="1" gradientUnits="userSpaceOnUse" gradientTransform="matrix(2.28903,-277.327,-616.843,32.1662,2840.34,3727.12)"><stop offset="0" style="stop-color:#1a83fe;stop-opacity:0"/><stop offset="0.51" style="stop-color:#1a83fe;stop-opacity:0.12"/><stop offset="1" style="stop-color:#1a83fe;stop-opacity:0.5"/></radialGradient><radialGradient id="_Radial4" cx="0" cy="0" r="1" gradientUnits="userSpaceOnUse" gradientTransform="matrix(1.25156,-151.633,-337.268,17.5874,4554.05,1607.11)"><stop offset="0" style="stop-color:#1a83fe;stop-opacity:0"/><stop offset="0.5" style="stop-color:#1a83fe;stop-opacity:0.12"/><stop offset="1" style="stop-color:#1a83fe;stop-opacity:0.5"/></radialGradient><radialGradient id="_Radial5" cx="0" cy="0" r="1" gradientUnits="userSpaceOnUse" gradientTransform="matrix(3.54444,-429.426,-955.147,49.8076,5889.9,2395.8)"><stop offset="0" style="stop-color:#1a83fe;stop-opacity:0"/><stop offset="0.51" style="stop-color:#1a83fe;stop-opacity:0.12"/><stop offset="1" style="stop-color:#1a83fe;stop-opacity:0.5"/></radialGradient><linearGradient id="_Linear6" x1="0" y1="0" x2="1" y2="0" gradientUnits="userSpaceOnUse" gradientTransform="matrix(533.333,133.333,-133.333,533.333,2441.67,2166.21)"><stop offset="0" style="stop-color:#ff4791;stop-opacity:0.5"/><stop offset="1" style="stop-color:#ff4791;stop-opacity:0"/></linearGradient><radialGradient id="_Radial7" cx="0" cy="0" r="1" gradientUnits="userSpaceOnUse" gradientTransform="matrix(275.908,228.713,-228.713,275.908,4059.15,1291.26)"><stop offset="0" style="stop-color:#1a83fe;stop-opacity:0"/><stop offset="0.56" style="stop-color:#1a83fe;stop-opacity:0.1"/><stop offset="1" style="stop-color:#1a83fe;stop-opacity:0.5"/></radialGradient><radialGradient id="_Radial8" cx="0" cy="0" r="1" gradientUnits="userSpaceOnUse" gradientTransform="matrix(371.879,324.898,-324.898,371.879,2027.7,3213.2)"><stop offset="0" style="stop-color:#1a83fe;stop-opacity:0"/><stop offset="0.51" style="stop-color:#1a83fe;stop-opacity:0.12"/><stop offset="1" style="stop-color:#1a83fe;stop-opacity:0.5"/></radialGradient><radialGradient id="_Radial9" cx="0" cy="0" r="1" gradientUnits="userSpaceOnUse" gradientTransform="matrix(317.379,264.149,-264.149,317.379,1406.02,2739.87)"><stop offset="0" style="stop-color:#1a83fe;stop-opacity:0"/><stop offset="0.51" style="stop-color:#1a83fe;stop-opacity:0.12"/><stop offset="1" style="stop-color:#1a83fe;stop-opacity:0.5"/></radialGradient><radialGradient id="_Radial10" cx="0" cy="0" r="1" gradientUnits="userSpaceOnUse" gradientTransform="matrix(-435.324,-362.686,362.686,-435.324,221.019,1456.34)"><stop offset="0" style="stop-color:#1a83fe;stop-opacity:0"/><stop offset="0.46" style="stop-color:#1a83fe;stop-opacity:0.14"/><stop offset="1" style="stop-color:#1a83fe;stop-opacity:0.5"/></radialGradient><radialGradient id="_Radial11" cx="0" cy="0" r="1" gradientUnits="userSpaceOnUse" gradientTransform="matrix(-435.324,-362.686,362.686,-435.324,4944.28,1840.71)"><stop offset="0" style="stop-color:#1a83fe;stop-opacity:0"/><stop offset="0.51" style="stop-color:#1a83fe;stop-opacity:0.12"/><stop offset="1" style="stop-color:#1a83fe;stop-opacity:0.5"/></radialGradient><linearGradient id="_Linear12" x1="0" y1="0" x2="1" y2="0" gradientUnits="userSpaceOnUse" gradientTransform="matrix(1209.2,-594.265,594.265,1209.2,2442.8,1566.1)"><stop offset="0" style="stop-color:#ff4791;stop-opacity:0.5"/><stop offset="1" style="stop-color:#ff4791;stop-opacity:0"/></linearGradient><linearGradient id="_Linear13" x1="0" y1="0" x2="1" y2="0" gradientUnits="userSpaceOnUse" gradientTransform="matrix(364.397,217.801,-217.801,364.397,2677.27,1515.53)"><stop offset="0" style="stop-color:#ff4791;stop-opacity:0.5"/><stop offset="1" style="stop-color:#ff4791;stop-opacity:0"/></linearGradient><linearGradient id="_Linear14" x1="0" y1="0" x2="1" y2="0" gradientUnits="userSpaceOnUse" gradientTransform="matrix(1410.16,761.575,-761.575,1410.16,2583.76,1414.55)"><stop offset="0" style="stop-color:#ff4791;stop-opacity:0.5"/><stop offset="1" style="stop-color:#ff4791;stop-opacity:0"/></linearGradient><linearGradient id="_Linear15" x1="0" y1="0" x2="1" y2="0" gradientUnits="userSpaceOnUse" gradientTransform="matrix(-1273.28,-22.0669,22.0669,-1273.28,3641.67,1566.67)"><stop offset="0" style="stop-color:#ff4791;stop-opacity:0.5"/><stop offset="1" style="stop-color:#ff4791;stop-opacity:0"/></linearGradient><linearGradient id="_Linear16" x1="0" y1="0" x2="1" y2="0" gradientUnits="userSpaceOnUse" gradientTransform="matrix(-572.301,178.247,178.247,572.301,2670.46,1524.57)"><stop offset="0" style="stop-color:#ff4791;stop-opacity:0.5"/><stop offset="1" style="stop-color:#ff4791;stop-opacity:0"/></linearGradient><linearGradient id="_Linear17" x1="0" y1="0" x2="1" y2="0" gradientUnits="userSpaceOnUse" gradientTransform="matrix(533.333,133.333,-133.333,533.333,2408.33,516.667)"><stop offset="0" style="stop-color:#ff4791;stop-opacity:0.5"/><stop offset="1" style="stop-color:#ff4791;stop-opacity:0"/></linearGradient><linearGradient id="_Linear18" x1="0" y1="0" x2="1" y2="0" gradientUnits="userSpaceOnUse" gradientTransform="matrix(-533.333,133.333,133.333,533.333,1808.33,1952.27)"><stop offset="0" style="stop-color:#ff4791;stop-opacity:0.5"/><stop offset="1" style="stop-color:#ff4791;stop-opacity:0"/></linearGradient><radialGradient id="_Radial19" cx="0" cy="0" r="1" gradientUnits="userSpaceOnUse" gradientTransform="matrix(-691.475,-210.224,-210.224,691.475,1979.52,1018.93)"><stop offset="0" style="stop-color:#ff4791;stop-opacity:0.5"/><stop offset="0.55" style="stop-color:#ff4791;stop-opacity:0.39"/><stop offset="1" style="stop-color:#ff4791;stop-opacity:0"/></radialGradient><radialGradient id="_Radial20" cx="0" cy="0" r="1" gradientUnits="userSpaceOnUse" gradientTransform="matrix(-691.475,-210.224,-210.224,691.475,2787.14,1658.34)"><stop offset="0" style="stop-color:#ff4791;stop-opacity:0.5"/><stop offset="0.55" style="stop-color:#ff4791;stop-opacity:0.39"/><stop offset="1" style="stop-color:#ff4791;stop-opacity:0"/></radialGradient><linearGradient id="_Linear21" x1="0" y1="0" x2="1" y2="0" gradientUnits="userSpaceOnUse" gradientTransform="matrix(1100,-450,450,1100,3075,3016.67)"><stop offset="0" style="stop-color:#1a83fe;stop-opacity:0.5"/><stop offset="1" style="stop-color:#1a83fe;stop-opacity:0"/></linearGradient></defs></svg>